<svg xmlns="http://www.w3.org/2000/svg" width="240" height="241" viewBox="0 0 240 241" fill="none">
  <g clip-path="url(#clip0_27_640)">
    <path d="M240 183.588H0V183.708H240V183.588Z" fill="#EBEBEB"/>
    <path d="M202.829 186.857H190.363V186.977H202.829V186.857Z" fill="#EBEBEB"/>
    <path d="M151.517 187.721H147.346V187.841H151.517V187.721Z" fill="#EBEBEB"/>
    <path d="M215.952 191.311H206.741V191.431H215.952V191.311Z" fill="#EBEBEB"/>
    <path d="M32.9802 187.663H25.1802V187.783H32.9802V187.663Z" fill="#EBEBEB"/>
    <path d="M53.2272 187.663H35.5488V187.783H53.2272V187.663Z" fill="#EBEBEB"/>
    <path d="M141.763 189.689H96.7969V189.809H141.763V189.689Z" fill="#EBEBEB"/>
    <path d="M113.76 162.18H21.0768C20.3507 162.179 19.6548 161.889 19.1419 161.375C18.6289 160.862 18.3408 160.165 18.3408 159.439V29.1527C18.3471 28.4307 18.638 27.7405 19.1503 27.2318C19.6626 26.7231 20.3549 26.4371 21.0768 26.4359H113.76C114.487 26.4359 115.184 26.7246 115.698 27.2386C116.212 27.7526 116.501 28.4497 116.501 29.1767V159.439C116.501 160.166 116.212 160.863 115.698 161.377C115.184 161.891 114.487 162.18 113.76 162.18ZM21.0768 26.5319C20.3826 26.5331 19.7172 26.8098 19.2267 27.3012C18.7363 27.7925 18.4608 28.4584 18.4608 29.1527V159.439C18.4608 160.133 18.7363 160.799 19.2267 161.291C19.7172 161.782 20.3826 162.059 21.0768 162.06H113.76C114.455 162.059 115.121 161.782 115.612 161.291C116.103 160.8 116.38 160.134 116.381 159.439V29.1527C116.38 28.458 116.103 27.7921 115.612 27.3009C115.121 26.8096 114.455 26.5331 113.76 26.5319H21.0768Z" fill="#EBEBEB"/>
    <path d="M217.588 162.18H124.9C124.174 162.179 123.478 161.889 122.964 161.376C122.45 160.862 122.161 160.166 122.16 159.439V29.1527C122.167 28.4303 122.459 27.74 122.972 27.2315C123.485 26.7229 124.178 26.4371 124.9 26.4359H217.588C218.31 26.4384 219.001 26.7249 219.512 27.2335C220.023 27.742 220.313 28.4316 220.32 29.1527V159.439C220.32 160.164 220.032 160.86 219.52 161.374C219.008 161.887 218.314 162.177 217.588 162.18ZM124.9 26.5319C124.206 26.5331 123.54 26.8096 123.049 27.3009C122.557 27.7921 122.281 28.458 122.28 29.1527V159.439C122.281 160.134 122.557 160.8 123.049 161.291C123.54 161.782 124.206 162.059 124.9 162.06H217.588C218.283 162.059 218.949 161.782 219.44 161.291C219.931 160.8 220.208 160.134 220.209 159.439V29.1527C220.208 28.458 219.931 27.7921 219.44 27.3009C218.949 26.8096 218.283 26.5331 217.588 26.5319H124.9Z" fill="#EBEBEB"/>
    <path d="M102.178 147.938H79.7231V183.588H102.178V147.938Z" fill="#F0F0F0"/>
    <path d="M31.2479 183.588H79.7231V147.938H31.2479L31.2479 183.588Z" fill="#F5F5F5"/>
    <path d="M31.0126 176.901H54.8638V163.49H31.0126V176.901Z" fill="#FAFAFA"/>
    <g style="mix-blend-mode:multiply" opacity="0.7">
      <path d="M102.178 151.154H31.0132V152.877H102.178V151.154Z" fill="#E6E6E6"/>
    </g>
    <path d="M103.416 146.897H79.7231V151.879H103.416V146.897Z" fill="#F0F0F0"/>
    <path d="M30.0095 151.879H79.7231V146.897H30.0095V151.879Z" fill="#F5F5F5"/>
    <path d="M35.3425 146.805H51.1201V121.754H35.3425V146.805Z" fill="#F5F5F5"/>
    <path d="M85.1857 121.754H51.1201V146.805H85.1857V121.754Z" fill="#F0F0F0"/>
    <path d="M85.348 132.684H68.5864V142.106H85.348V132.684Z" fill="#F5F5F5"/>
    <g style="mix-blend-mode:multiply" opacity="0.7">
      <path d="M35.3374 125.225H85.3486V124.015H35.3374V125.225Z" fill="#E6E6E6"/>
    </g>
    <path d="M34.4689 124.524H51.1201V121.025H34.4689V124.524Z" fill="#F5F5F5"/>
    <path d="M86.0545 121.025H51.1201V124.524H86.0545V121.025Z" fill="#F0F0F0"/>
    <path d="M22.6991 107.642L105.897 107.642L105.897 43.1591L22.6991 43.1591L22.6991 107.642Z" fill="#E6E6E6"/>
    <path d="M20.9661 107.642L104.165 107.642L104.165 43.1591L20.9661 43.1591L20.9661 107.642Z" fill="#F5F5F5"/>
    <path d="M16.9535 111.377L105.897 111.377V107.642L16.9535 107.642V111.377Z" fill="#E6E6E6"/>
    <path d="M15.005 111.377L100.114 111.377V107.642L15.005 107.642V111.377Z" fill="#F5F5F5"/>
    <path d="M101.059 104.292V46.5191L24.0815 46.5191V104.292H101.059Z" fill="#FAFAFA"/>
    <path d="M52.6798 104.292L74.2366 46.5191H52.2526L30.6958 104.292H52.6798Z" fill="white"/>
    <path d="M68.5675 104.292L90.1243 46.5191H78.0139L56.4619 104.292H68.5675Z" fill="white"/>
    <path d="M64.3008 104.292V46.5191H60.8352V104.292H64.3008Z" fill="#F5F5F5"/>
    <path d="M25.3921 104.292L25.3921 46.5191H24.0817L24.0817 104.292H25.3921Z" fill="#E6E6E6"/>
    <path d="M65.6108 104.287V46.5143H64.3004V104.287H65.6108Z" fill="#E6E6E6"/>
    <path d="M137.313 183.588H198.912L198.912 32.623H137.313L137.313 183.588Z" fill="#F0F0F0"/>
    <path d="M137.314 183.588H195.994L195.994 32.623H137.314L137.314 183.588Z" fill="#F5F5F5"/>
    <path d="M192.902 180.161V36.0455H140.405V180.161H192.902Z" fill="#F0F0F0"/>
    <path d="M151.719 100.97H147.591C146.321 100.97 145.292 102 145.292 103.269V103.509C145.292 104.779 146.321 105.809 147.591 105.809H151.719C152.989 105.809 154.018 104.779 154.018 103.509V103.269C154.018 102 152.989 100.97 151.719 100.97Z" fill="white"/>
    <path d="M141.211 180.161V36.0454H140.409V180.161H141.211Z" fill="#F0F0F0"/>
    <path d="M119.999 205.265C171.399 205.265 213.067 202.832 213.067 199.831C213.067 196.83 171.399 194.397 119.999 194.397C68.5997 194.397 26.9321 196.83 26.9321 199.831C26.9321 202.832 68.5997 205.265 119.999 205.265Z" fill="#F5F5F5"/>
    <path d="M80.7838 73.7494C80.923 74.2966 80.7838 74.7526 80.515 74.7718C80.2462 74.791 79.8718 74.3686 79.7326 73.8118C79.5934 73.255 79.7086 72.8134 80.0014 72.7894C80.2942 72.7654 80.6398 73.207 80.7838 73.7494Z" fill="white"/>
    <path d="M81.1867 77.777C81.4628 77.7121 81.5819 77.2139 81.4527 76.6642C81.3234 76.1145 80.9948 75.7216 80.7187 75.7865C80.4426 75.8514 80.3235 76.3496 80.4527 76.8993C80.582 77.449 80.9106 77.8419 81.1867 77.777Z" fill="white"/>
    <path d="M90.1056 170.594H42.8208V198.449H90.1056V170.594Z" fill="#008273"/>
    <path opacity="0.7" d="M90.1056 170.594H42.8208V198.449H90.1056V170.594Z" fill="white"/>
    <path opacity="0.3" d="M54.9792 170.594H42.8208V198.449H54.9792V170.594Z" fill="#008273"/>
    <path opacity="0.7" d="M77.5731 170.594H67.5171V175.697H77.5731V170.594Z" fill="white"/>
    <path opacity="0.7" d="M50.8511 170.594H46.9487V175.697H50.8511V170.594Z" fill="white"/>
    <path opacity="0.3" d="M87.4564 190.245H81.8979V195.804H87.4564V190.245Z" fill="#008273"/>
    <path opacity="0.3" d="M80.261 190.245H74.7026V195.804H80.261V190.245Z" fill="#008273"/>
    <path d="M46.4062 170.594H78.5278V151.668H46.4062V170.594Z" fill="#008273"/>
    <path opacity="0.7" d="M46.4062 170.594H78.5278V151.668H46.4062V170.594Z" fill="white"/>
    <path opacity="0.3" d="M70.267 151.673H46.4062V170.599H70.267V151.673Z" fill="#008273"/>
    <path opacity="0.7" d="M54.9216 155.138H61.752V151.673H54.9216V155.138Z" fill="white"/>
    <path opacity="0.7" d="M73.075 155.138H75.7246V151.673H73.075V155.138Z" fill="white"/>
    <path opacity="0.3" d="M48.2014 168.799H51.979V165.021H48.2014V168.799Z" fill="#008273"/>
    <path opacity="0.3" d="M53.093 168.799H56.8706V165.021H53.093V168.799Z" fill="#008273"/>
    <path d="M102.125 196.361H134.318V177.396H102.125V196.361Z" fill="#008273"/>
    <path opacity="0.7" d="M102.125 196.361H134.318V177.396H102.125V196.361Z" fill="white"/>
    <path opacity="0.3" d="M126.043 177.396H102.129V196.361H126.043V177.396Z" fill="#008273"/>
    <path opacity="0.7" d="M102.13 189.593H103.93V184.193H102.13V189.593Z" fill="white"/>
    <path opacity="0.7" d="M123.763 189.597H128.318V184.197H123.763V189.597Z" fill="white"/>
    <path opacity="0.3" d="M129.893 194.388H131.41V190.601H129.893V194.388Z" fill="#008273"/>
    <path opacity="0.3" d="M131.856 194.388H133.373V190.601H131.856V194.388Z" fill="#008273"/>
    <path d="M115.559 186.895L107.827 188.613L110.783 196.965L117.244 195.54L115.559 186.895Z" fill="#FFB573"/>
    <path opacity="0.2" d="M115.559 186.9L107.821 188.618L109.477 193.293L116.504 191.738L115.559 186.9Z" fill="black"/>
    <path d="M97.3043 154.519C94.0547 143.359 85.9523 131.714 90.4211 121.087L112.765 121.025C112.765 121.025 114.565 145.303 115.122 155.623C115.703 166.356 116.874 190.097 116.874 190.097L108.056 192.017C108.056 192.017 99.5171 174.276 97.3043 154.519Z" fill="#263238"/>
    <path opacity="0.2" d="M89.5288 132.175C90.6184 138.108 93.5992 144.175 95.8408 150.18C98.5384 138.842 98.2072 125.513 89.5288 132.175Z" fill="black"/>
    <path d="M122.606 194.791C122.606 194.791 120.546 195.717 118.026 194.253C117.874 194.187 117.709 194.155 117.543 194.16C117.377 194.165 117.214 194.206 117.066 194.282C115.77 194.82 112.31 196.135 110.073 195.857C110.024 195.849 109.973 195.853 109.927 195.87C109.88 195.886 109.837 195.914 109.804 195.95C109.77 195.987 109.746 196.031 109.733 196.079C109.721 196.127 109.72 196.178 109.732 196.226C110.051 197.407 110.268 198.613 110.38 199.831L112.43 199.394L112.694 198.669L113.774 199.116C117.16 198.595 120.483 197.727 123.69 196.524C123.988 195.213 122.606 194.791 122.606 194.791Z" fill="#008273"/>
    <path d="M82.8135 188.369L75.4407 188.441L75.1191 197.133L81.2775 197.085L82.8135 188.369Z" fill="#FFB573"/>
    <path opacity="0.2" d="M82.8135 188.373L75.4359 188.441L75.2583 193.313L81.9543 193.255L82.8135 188.373Z" fill="black"/>
    <path d="M74.7976 154.519C74.2024 143.359 73.3912 126.679 77.1304 121.538L100.089 121.025C100.089 121.025 93.7048 145.476 91.324 155.748C88.8472 166.452 82.7752 191.748 82.7752 191.748H74.8072C74.8072 191.748 71.7976 167.253 74.7976 154.519Z" fill="#263238"/>
    <path d="M109.526 84.5447L109.876 85.3799L110.289 86.3399C110.577 86.9687 110.865 87.6071 111.177 88.2215C111.779 89.4362 112.447 90.6172 113.179 91.7591C113.534 92.3063 113.903 92.8391 114.287 93.3239C114.647 93.8045 115.033 94.2644 115.444 94.7015C116.149 95.4523 116.957 96.0988 117.844 96.6215L116.169 96.2519C116.998 96.3797 117.836 96.4471 118.675 96.4535C119.587 96.4661 120.5 96.418 121.406 96.3095C122.366 96.2087 123.326 96.0455 124.286 95.8295C124.766 95.7287 125.246 95.6231 125.755 95.4983L126.489 95.3207L126.849 95.2295C126.949 95.1971 127.052 95.1761 127.156 95.1671L128.899 95.4791C129.335 95.5533 129.742 95.7467 130.075 96.0377C130.408 96.3287 130.654 96.7061 130.786 97.1282C130.918 97.5503 130.931 98.0007 130.823 98.4297C130.715 98.8586 130.491 99.2495 130.175 99.5591L129.777 99.9527L129.422 100.293C129.182 100.514 128.942 100.73 128.692 100.937C128.212 101.345 127.689 101.738 127.156 102.103C126.084 102.837 124.952 103.479 123.772 104.023C122.546 104.58 121.272 105.025 119.966 105.353C118.595 105.695 117.192 105.888 115.78 105.929C115.368 105.943 114.957 105.876 114.571 105.732L114.091 105.559C113.035 105.16 112.018 104.665 111.052 104.081C110.147 103.52 109.286 102.889 108.479 102.194C107.715 101.535 106.989 100.833 106.305 100.092C105.638 99.3623 105.043 98.6087 104.467 97.8455C103.891 97.0823 103.372 96.3047 102.887 95.5127C102.403 94.7207 101.927 93.9287 101.519 93.1127C101.111 92.2967 100.703 91.4807 100.348 90.6407C100.171 90.2183 99.9929 89.7959 99.8297 89.3639L99.5849 88.6967L99.4649 88.3559L99.3305 87.9383C98.9009 86.6218 98.9962 85.1903 99.5967 83.9425C100.197 82.6947 101.256 81.727 102.553 81.2415C103.85 80.7559 105.284 80.79 106.557 81.3366C107.829 81.8832 108.841 82.9001 109.382 84.1751L109.526 84.5447Z" fill="#FFB573"/>
    <path d="M126.556 100.279L125.485 97.3655C125.519 94.1015 129.705 94.8743 129.705 94.8743L132.829 94.1783C133.215 94.1265 133.607 94.2127 133.936 94.4217C134.264 94.6308 134.508 94.9492 134.625 95.3207L135.388 97.3511C135.569 97.7594 135.584 98.2223 135.43 98.6416C135.276 99.061 134.965 99.4038 134.562 99.5975L131.807 100.557C131.285 100.759 130.72 100.826 130.165 100.754L126.556 100.279Z" fill="#FFB573"/>
    <path d="M103.093 76.0439C107.697 77.9639 111.733 86.3111 111.733 86.3111C111.522 88.3271 106.885 93.9575 102.796 95.4023C102.796 95.4023 99.6086 94.0775 97.6022 89.7239C95.039 84.0887 98.2118 74.0087 103.093 76.0439Z" fill="#008273"/>
    <path d="M100.502 75.4535C93.6835 74.8054 86.8144 74.9149 80.0202 75.7799C79.0898 75.9173 78.1972 76.2432 77.397 76.7375C76.5969 77.2319 75.9061 77.8844 75.3669 78.655C74.8276 79.4256 74.4514 80.2982 74.2611 81.2193C74.0708 82.1404 74.0705 83.0906 74.2602 84.0119C77.4474 100.049 74.1066 118.039 76.1802 121.625C76.1802 121.625 99.8586 121.937 113.097 121.025C116.726 103.615 109.593 92.9591 106.007 79.3607C105.388 77.0375 102.892 75.7031 100.502 75.4535Z" fill="#008273"/>
    <path d="M82.0457 88.6967C81.3449 89.9399 80.5673 91.2551 79.8233 92.5367L77.6105 96.3767C77.2505 97.0103 76.8953 97.6439 76.5593 98.2679C76.2233 98.8919 75.8825 99.5111 75.5993 100.111C75.3161 100.711 75.0281 101.306 74.8025 101.81C74.6921 102.06 74.5961 102.29 74.5337 102.453L74.4905 102.564V102.607C74.4617 102.669 74.4905 102.545 74.4473 102.482L74.4233 102.002C74.4561 103.073 74.5912 104.139 74.8265 105.185C75.0761 106.385 75.3833 107.647 75.7433 108.909C76.1033 110.172 76.4729 111.473 76.8617 112.778C77.2505 114.084 77.6633 115.413 78.0137 116.705L78.0473 116.82C78.2071 117.413 78.1611 118.044 77.917 118.608C77.6729 119.172 77.245 119.637 76.7029 119.927C76.1608 120.217 75.5365 120.315 74.9317 120.205C74.3269 120.095 73.7772 119.783 73.3721 119.321C72.4082 118.2 71.5045 117.029 70.6649 115.812C70.2521 115.207 69.8345 114.602 69.4409 113.973C69.0473 113.345 68.6681 112.716 68.2937 112.053C67.5377 110.722 66.8551 109.351 66.2489 107.945C65.5548 106.358 65.0567 104.693 64.7657 102.986C64.7585 102.89 64.7585 102.794 64.7657 102.698V102.492C64.7592 102.065 64.78 101.639 64.8281 101.215C64.8281 101.042 64.8713 100.845 64.8953 100.687L64.9769 100.236C65.0873 99.6359 65.2169 99.1367 65.3465 98.6519C65.6105 97.6919 65.9225 96.8567 66.2297 96.0359C66.5369 95.2151 66.8633 94.4423 67.1897 93.6791C67.5161 92.9159 67.8809 92.1767 68.2313 91.4423C68.9321 89.9687 69.6713 88.5623 70.4729 87.1559C71.2745 85.7495 72.0521 84.4151 72.9737 83.0327C73.7918 82.0058 74.9572 81.3135 76.2503 81.0861C77.5434 80.8588 78.8751 81.1121 79.9944 81.7983C81.1138 82.4846 81.9436 83.5564 82.3276 84.8119C82.7116 86.0675 82.6233 87.4201 82.0793 88.6151L82.0457 88.6967Z" fill="#FFB573"/>
    <path d="M77.558 76.7063C73.0028 78.7511 69.2012 87.0215 69.2012 87.0215C69.6476 89.9015 76.094 96.0647 79.4636 97.2263C79.4636 97.2263 82.2764 94.7495 83.5868 88.9799C85.0892 82.3511 80.0204 77.2343 77.558 76.7063Z" fill="#008273"/>
    <path d="M97.2756 76.6391C96.8284 75.7719 96.101 75.0817 95.2116 74.6807C94.8768 73.8184 94.8514 72.8668 95.1396 71.9879L85.0596 68.7719C85.8756 72.1319 86.4996 74.7431 85.2708 76.3655C87.2532 77.5751 90.8916 79.7255 94.8708 79.6391C98.85 79.5527 97.9188 78.0359 97.2756 76.6391Z" fill="#FFB573"/>
    <path opacity="0.2" d="M95.0388 72.2999L87.4644 71.8535C89.8356 74.3831 93.426 75.3383 95.0628 74.3063C94.8858 73.6502 94.8776 72.96 95.0388 72.2999Z" fill="black"/>
    <path d="M95.0822 79.6295L93.4454 78.2759L91.2422 79.3799C91.2422 79.3799 92.639 80.6759 95.0822 79.6295Z" fill="#008273"/>
    <path opacity="0.3" d="M95.0822 79.6295L93.4454 78.2759L91.2422 79.3799C91.2422 79.3799 92.639 80.6759 95.0822 79.6295Z" fill="black"/>
    <path d="M97.1893 60.3383C97.3189 62.3735 96.0085 64.1159 94.2613 64.2263C92.5141 64.3367 90.9973 62.7863 90.8677 60.7367C90.7381 58.6871 92.0485 56.9591 93.7957 56.8487C95.5429 56.7383 97.0597 58.3031 97.1893 60.3383Z" fill="#263238"/>
    <path d="M98.6151 67.6103C98.7447 69.6455 97.4343 71.3879 95.6871 71.4983C93.9399 71.6087 92.4231 70.0583 92.2935 68.0087C92.1639 65.9591 93.4791 64.2311 95.2215 64.1207C96.9639 64.0103 98.4855 65.5703 98.6151 67.6103Z" fill="#263238"/>
    <path d="M83.3797 63.3239C84.2341 67.7495 84.9205 70.7399 87.9349 72.3767C93.9301 75.6359 96.9397 72.9191 97.5349 68.3687C98.0581 64.2695 96.5749 57.7223 91.6501 56.3975C86.7973 55.0919 82.5205 58.8983 83.3797 63.3239Z" fill="#FFB573"/>
    <path d="M95.0774 66.7559C100.242 65.6855 99.5222 70.7207 98.279 72.5159C97.1846 74.1143 94.8134 75.4967 90.695 73.7831C86.4134 72.0071 87.5558 68.9447 86.1878 67.0967C85.7078 66.4247 86.783 63.6695 87.4838 65.1143C88.9958 68.2439 92.9366 65.9255 95.0774 66.7559Z" fill="#263238"/>
    <path d="M85.3189 67.1735C87.7189 68.6135 88.0741 66.1799 87.4837 65.1383C88.4437 64.0199 89.2645 60.2183 86.6005 59.8583C87.8821 60.1991 91.9525 59.8295 91.2853 57.3863C92.8309 58.7783 97.4821 59.6087 97.1893 57.1367C96.7669 53.5223 91.2421 50.4167 87.4837 53.5223C82.9525 51.0791 77.6677 56.1383 80.3605 58.4567C76.9045 59.1863 77.6677 64.3223 79.6501 64.9751C78.1189 67.6439 84.2101 71.1335 85.3189 67.1735Z" fill="#263238"/>
    <path opacity="0.2" d="M90.4692 63.3575C89.9122 63.1648 89.3018 63.1993 88.77 63.4535C89.3372 63.5332 89.9146 63.5006 90.4692 63.3575Z" fill="black"/>
    <path opacity="0.2" d="M90.4644 63.7655C90.1994 63.7328 89.9304 63.7588 89.6765 63.8418C89.4227 63.9247 89.1902 64.0626 88.9956 64.2455C89.5139 64.1922 90.0147 64.0285 90.4644 63.7655Z" fill="black"/>
    <path opacity="0.2" d="M94.6169 59.0759C93.1968 58.9588 91.7683 58.9894 90.3545 59.1671C92.7305 59.2055 94.6169 59.0759 94.6169 59.0759Z" fill="black"/>
    <path opacity="0.2" d="M95.236 59.5175C95.236 59.5175 91.9768 59.6135 90.436 60.1943C92.0486 60.0696 93.6518 59.8435 95.236 59.5175Z" fill="black"/>
    <path d="M82.0791 68.3255C82.4522 68.7967 82.9149 69.1895 83.4405 69.4811C83.9661 69.7728 84.5442 69.9575 85.1415 70.0247C86.7447 70.1927 87.1047 68.8919 86.5815 67.4615C86.1015 66.1751 84.4983 64.4999 82.9911 64.9703C81.4839 65.4407 81.1767 67.1495 82.0791 68.3255Z" fill="#FFB573"/>
    <path d="M91.8666 63.4199C91.905 63.8087 92.145 64.1015 92.4042 64.0727C92.6634 64.0439 92.8314 63.7031 92.793 63.3143C92.7546 62.9255 92.5098 62.6279 92.2506 62.6567C91.9914 62.6855 91.8234 63.0263 91.8666 63.4199Z" fill="#263238"/>
    <path d="M95.9223 63.0935C95.9607 63.4823 96.2007 63.7799 96.4599 63.7463C96.7191 63.7127 96.8871 63.3767 96.8487 62.9879C96.8103 62.5991 96.5655 62.3015 96.3063 62.3303C96.0471 62.3591 95.8791 62.6999 95.9223 63.0935Z" fill="#263238"/>
    <path d="M94.6167 63.4967L95.0967 66.7703C95.4863 66.7931 95.8769 66.7525 96.2535 66.6503C96.3284 66.626 96.3952 66.5817 96.4467 66.5221C96.4982 66.4626 96.5325 66.3902 96.5458 66.3126C96.5592 66.235 96.5511 66.1553 96.5224 66.082C96.4937 66.0087 96.4456 65.9446 96.3831 65.8967C95.3991 65.1719 94.6167 63.4967 94.6167 63.4967Z" fill="#ED893E"/>
    <path d="M89.7593 62.3927C89.7204 62.3904 89.6825 62.3789 89.6489 62.3591C89.6236 62.3422 89.6018 62.3204 89.585 62.295C89.5681 62.2697 89.5564 62.2412 89.5506 62.2113C89.5448 62.1814 89.545 62.1506 89.5512 62.1208C89.5573 62.0909 89.5693 62.0626 89.5865 62.0375C89.7821 61.7254 90.049 61.4643 90.3653 61.2757C90.6816 61.0871 91.0382 60.9764 91.4057 60.9527C91.4694 60.9527 91.5304 60.978 91.5754 61.023C91.6204 61.068 91.6457 61.129 91.6457 61.1927C91.6457 61.2563 91.6204 61.3174 91.5754 61.3624C91.5304 61.4074 91.4694 61.4327 91.4057 61.4327C91.1132 61.4543 90.8301 61.5452 90.5797 61.698C90.3293 61.8507 90.1188 62.0609 89.9657 62.3111C89.9407 62.3406 89.9088 62.3635 89.8728 62.3777C89.8367 62.392 89.7978 62.3971 89.7593 62.3927Z" fill="#263238"/>
    <path d="M97.4054 61.9559C97.3681 61.9585 97.3306 61.9521 97.2963 61.937C97.2621 61.922 97.232 61.8988 97.2086 61.8695C97.0328 61.639 96.8052 61.4533 96.5441 61.3274C96.2831 61.2014 95.996 61.1388 95.7062 61.1447C95.6762 61.148 95.6458 61.1452 95.6169 61.1366C95.5879 61.1279 95.561 61.1135 95.5378 61.0943C95.5145 61.075 95.4953 61.0513 95.4814 61.0245C95.4674 60.9977 95.459 60.9684 95.4566 60.9383C95.4524 60.8776 95.4714 60.8176 95.5097 60.7704C95.548 60.7232 95.6028 60.6922 95.663 60.6839C96.0313 60.6675 96.398 60.7401 96.7322 60.8955C97.0664 61.0509 97.3582 61.2846 97.583 61.5767C97.6205 61.6253 97.6375 61.6867 97.6303 61.7477C97.6231 61.8087 97.5924 61.8644 97.5446 61.9031C97.5044 61.9339 97.456 61.9523 97.4054 61.9559Z" fill="#263238"/>
    <path d="M85.7559 74.2055C85.7559 74.2055 89.2071 78.0455 93.4359 78.2663C90.9687 79.4327 89.1879 81.9383 89.1879 81.9383C89.1879 81.9383 84.6903 80.8391 83.6919 75.2183C84.3591 74.4359 85.7559 74.2055 85.7559 74.2055Z" fill="#EBEBEB"/>
    <path d="M95.0825 79.6295L96.9401 77.9687L99.3017 78.6695C99.3017 78.6695 97.5161 80.6759 95.0825 79.6295Z" fill="#008273"/>
    <path opacity="0.3" d="M95.0825 79.6295L96.9401 77.9687L99.3017 78.6695C99.3017 78.6695 97.5161 80.6759 95.0825 79.6295Z" fill="black"/>
    <path d="M95.2119 74.6807C95.2119 74.6807 96.8583 76.6007 96.9399 77.9687C98.8983 78.7271 100.708 81.2135 100.708 81.2135C100.708 81.2135 100.228 77.2775 97.1271 75.0407C96.5392 74.7316 95.872 74.6062 95.2119 74.6807Z" fill="#EBEBEB"/>
    <path d="M74.0776 199.826H75.6808L76.1128 199.173L76.9528 199.831H86.6248C86.6852 199.07 86.5428 198.306 86.212 197.618C86.212 197.618 83.332 197.354 82.2088 195.914C82.1692 195.858 82.1141 195.814 82.0502 195.789C81.9863 195.763 81.9163 195.757 81.8488 195.77C80.8888 195.972 77.0488 196.697 74.956 195.938C74.904 195.916 74.8474 195.907 74.7911 195.912C74.7348 195.917 74.6806 195.936 74.6332 195.967C74.5859 195.998 74.5468 196.04 74.5194 196.089C74.4919 196.138 74.4771 196.194 74.476 196.25C74.4338 197.451 74.3006 198.646 74.0776 199.826Z" fill="#008273"/>
    <path d="M125.798 96.1559C126.926 93.7559 129.321 93.6935 131.164 93.0743C131.476 92.9687 132.033 93.6503 131.678 94.1303C131.485 94.4434 131.232 94.7148 130.933 94.9283C130.633 95.1419 130.294 95.2932 129.935 95.3735C129.911 96.2039 129.019 98.4455 126.667 98.3927C126.114 97.778 125.805 96.9825 125.798 96.1559Z" fill="#FFB573"/>
    <path d="M95.8502 68.2487C95.8502 68.2487 94.511 67.9415 90.7334 67.8935C91.1078 68.6951 92.0774 69.2951 94.0118 69.3335C95.567 69.4055 95.8502 68.2487 95.8502 68.2487Z" fill="white"/>
    <path d="M76.9961 115.673L74.1449 116.897C71.7977 119.162 75.2345 121.673 75.2345 121.673L76.4009 123.549C76.6279 123.866 76.96 124.092 77.3379 124.187C77.7158 124.282 78.1152 124.24 78.4649 124.068L80.4617 123.228C80.8837 123.079 81.231 122.772 81.43 122.371C81.629 121.971 81.6639 121.508 81.5273 121.082L80.7929 119.306C80.5786 118.788 80.2388 118.331 79.8041 117.977L76.9961 115.673Z" fill="#FFB573"/>
    <path d="M170.208 71.8295C167.285 67.1207 168.442 64.3463 171.648 63.7895L184.469 68.6135C189.029 74.1191 180.149 73.7975 185.074 78.1847C189.999 82.5719 175.781 88.1495 168.792 82.4183C161.803 76.6871 173.127 76.5383 170.208 71.8295Z" fill="#263238"/>
    <path d="M189.811 195.981L193.838 195.089C193.277 191.249 193.07 186.785 192.6 184.413L187.949 185.061L189.811 195.981Z" fill="#FFC3BD"/>
    <path d="M160.229 196.634L164.021 196.601C164.371 192.761 165.725 188.181 165.855 185.762L161.17 185.647L160.229 196.634Z" fill="#FFC3BD"/>
    <path d="M187.071 199.826C190.277 199.149 190.037 199.149 191.823 198.703C193.354 198.324 193.767 198.434 195 198.146C196.032 197.901 195.783 196.922 195.221 195.847C194.976 195.367 194.645 194.834 194.295 194.124C194.248 194.024 194.169 193.944 194.07 193.896C193.972 193.848 193.859 193.835 193.752 193.86L189.528 194.757C189.445 194.775 189.367 194.814 189.304 194.872C189.241 194.929 189.194 195.002 189.168 195.084C188.898 195.789 188.472 196.423 187.921 196.94C187.371 197.457 186.711 197.843 185.991 198.069C184.32 198.669 185.794 200.1 187.071 199.826Z" fill="#263238"/>
    <path d="M155.276 199.826C157.618 199.826 159.168 199.615 160.988 199.553C162.548 199.5 162.759 199.826 164.348 199.826C165.389 199.826 165.682 198.655 165.418 197.772C165.162 197.102 164.944 196.417 164.765 195.722C164.745 195.622 164.69 195.533 164.61 195.47C164.53 195.406 164.43 195.373 164.328 195.377H159.97C159.888 195.379 159.808 195.4 159.735 195.437C159.662 195.475 159.598 195.528 159.548 195.593C159.012 196.318 158.319 196.911 157.519 197.327C156.72 197.743 155.836 197.971 154.935 197.993C153.159 198.132 153.989 199.826 155.276 199.826Z" fill="#263238"/>
    <path d="M163.287 112.01C163.287 112.01 161.559 135.189 162.245 149.93C161.511 163.749 160.455 191.642 160.455 191.642C160.531 192.348 164.251 192.069 164.899 191.642C164.899 191.642 172.915 172.346 170.885 149.93C179.693 126.549 178.709 112.01 178.709 112.01H163.287Z" fill="#008273"/>
    <path opacity="0.2" d="M172.023 121.313C173.395 121.538 177.077 124.154 177.557 125.805C176.591 131.408 175.237 136.936 173.506 142.351C171.288 136.188 170.923 127.293 172.023 121.313Z" fill="black"/>
    <path d="M167.914 112.01C167.914 112.01 174.288 138.175 177.346 151.02C180.552 164.513 187.128 182.268 188.477 191.143C189.317 191.421 191.967 190.889 193.344 190.111C193.344 190.111 194.506 164.609 186.754 151.62C188.506 119.657 180.994 112.01 180.994 112.01H167.914Z" fill="#008273"/>
    <path d="M187.719 189.396C187.834 190.003 187.906 190.617 187.935 191.234C187.935 191.286 187.946 191.337 187.967 191.385C187.989 191.432 188.019 191.475 188.057 191.51C188.096 191.545 188.141 191.572 188.19 191.589C188.239 191.606 188.291 191.613 188.343 191.609C190.186 191.517 192.663 190.553 193.464 190.231C193.537 190.202 193.599 190.151 193.642 190.084C193.684 190.018 193.704 189.94 193.699 189.861L193.608 188.119C193.605 188.062 193.589 188.007 193.562 187.957C193.535 187.907 193.497 187.863 193.451 187.829C193.406 187.795 193.353 187.772 193.297 187.761C193.241 187.749 193.184 187.75 193.128 187.764L188.002 188.959C187.908 188.982 187.826 189.04 187.773 189.121C187.721 189.202 187.701 189.301 187.719 189.396Z" fill="#263238"/>
    <path opacity="0.1" d="M187.719 189.396C187.834 190.003 187.906 190.617 187.935 191.234C187.935 191.286 187.946 191.337 187.967 191.385C187.989 191.432 188.019 191.475 188.057 191.51C188.096 191.545 188.141 191.572 188.19 191.589C188.239 191.606 188.291 191.613 188.343 191.609C190.186 191.517 192.663 190.553 193.464 190.231C193.537 190.202 193.599 190.151 193.642 190.084C193.684 190.018 193.704 189.94 193.699 189.861L193.608 188.119C193.605 188.062 193.589 188.007 193.562 187.957C193.535 187.907 193.497 187.863 193.451 187.829C193.406 187.795 193.353 187.772 193.297 187.761C193.241 187.749 193.184 187.75 193.128 187.764L188.002 188.959C187.908 188.982 187.826 189.04 187.773 189.121C187.721 189.202 187.701 189.301 187.719 189.396Z" fill="white"/>
    <path d="M160.037 189.674C160.003 190.154 159.931 191.013 159.859 191.642C159.848 191.742 159.877 191.842 159.939 191.921C160.001 192 160.091 192.051 160.19 192.065C161.831 192.209 163.481 192.199 165.12 192.036C165.2 192.028 165.275 191.996 165.335 191.943C165.395 191.891 165.437 191.821 165.456 191.743L165.864 190.025C165.878 189.969 165.88 189.911 165.869 189.855C165.858 189.799 165.835 189.746 165.801 189.7C165.767 189.654 165.723 189.616 165.672 189.589C165.622 189.562 165.566 189.547 165.509 189.545L160.459 189.343C160.359 189.332 160.259 189.361 160.181 189.423C160.102 189.484 160.05 189.575 160.037 189.674Z" fill="#263238"/>
    <path opacity="0.1" d="M160.037 189.674C160.003 190.154 159.931 191.013 159.859 191.642C159.848 191.742 159.877 191.842 159.939 191.921C160.001 192 160.091 192.051 160.19 192.065C161.831 192.209 163.481 192.199 165.12 192.036C165.2 192.028 165.275 191.996 165.335 191.943C165.395 191.891 165.437 191.821 165.456 191.743L165.864 190.025C165.878 189.969 165.88 189.911 165.869 189.855C165.858 189.799 165.835 189.746 165.801 189.7C165.767 189.654 165.723 189.616 165.672 189.589C165.622 189.562 165.566 189.547 165.509 189.545L160.459 189.343C160.359 189.332 160.259 189.361 160.181 189.423C160.102 189.484 160.05 189.575 160.037 189.674Z" fill="white"/>
    <path d="M168.48 91.3558L168.163 91.8838L167.866 92.3638C167.669 92.671 167.463 92.959 167.261 93.247C166.853 93.8278 166.416 94.3798 165.975 94.9222C165.083 96.0065 164.121 97.0311 163.095 97.9895C162.615 98.4694 162.053 98.9494 161.525 99.3958C160.997 99.8422 160.431 100.284 159.85 100.687C158.702 101.523 157.496 102.275 156.24 102.938L156.067 103.029C155.628 103.27 155.125 103.368 154.627 103.308C153.869 103.217 153.127 103.024 152.419 102.737C151.759 102.463 151.131 102.117 150.547 101.705C150.004 101.324 149.5 100.892 149.04 100.413C148.6 99.964 148.195 99.4827 147.826 98.9734C147.132 98.0252 146.537 97.0088 146.05 95.9398C145.81 95.4214 145.599 94.8934 145.407 94.3654C145.218 93.819 145.058 93.263 144.927 92.6998C144.84 92.3471 144.88 91.9752 145.038 91.6483C145.196 91.3214 145.464 91.0601 145.794 90.9094C146.125 90.7587 146.498 90.728 146.848 90.8226C147.199 90.9173 147.506 91.1313 147.715 91.4278L147.807 91.5574C148.047 91.9078 148.344 92.335 148.623 92.719C148.901 93.103 149.203 93.4871 149.501 93.8566C150.075 94.572 150.704 95.2413 151.383 95.8582C151.965 96.4091 152.625 96.8716 153.341 97.231C153.882 97.5081 154.481 97.6529 155.088 97.6534L153.456 98.023C154.418 97.3807 155.344 96.6869 156.231 95.9446C157.126 95.1926 157.978 94.3913 158.784 93.5446C159.595 92.6998 160.383 91.8214 161.112 90.9046C161.482 90.4246 161.827 89.983 162.178 89.5174L162.658 88.8167L162.893 88.4758L163.09 88.183L163.215 87.9958C163.66 87.2957 164.366 86.8012 165.176 86.6211C165.986 86.4411 166.834 86.5903 167.535 87.0358C168.235 87.4814 168.729 88.1869 168.909 88.997C169.089 89.8072 168.94 90.6557 168.495 91.3558H168.48Z" fill="#FFC3BD"/>
    <path d="M167.712 85.0775C164.391 84.9863 161.17 88.0823 159.135 91.5815C159.615 93.8183 164.64 97.5143 164.64 97.5143C164.64 97.5143 172.085 90.3335 167.712 85.0775Z" fill="#263238"/>
    <path d="M162.283 91.1783C162.185 93.8777 162.225 96.5805 162.403 99.2759C162.537 102.789 162.777 106.245 163.286 112.01H180.984C180.624 107.028 181.205 101.345 184.382 90.1319C184.57 89.5454 184.624 88.9244 184.541 88.3143C184.457 87.7042 184.238 87.1205 183.9 86.606C183.562 86.0915 183.113 85.6591 182.586 85.3407C182.059 85.0222 181.467 84.8257 180.854 84.7655C180.153 84.6935 179.414 84.6359 178.646 84.5975C175.971 84.4077 173.286 84.4077 170.611 84.5975C169.737 84.6791 168.835 84.7895 167.966 84.9095C166.439 85.1345 165.038 85.8825 164.002 87.0258C162.965 88.1691 162.358 89.6368 162.283 91.1783Z" fill="#263238"/>
    <path d="M178.08 75.5495C177.38 78.1367 176.52 82.8742 178.2 84.5974C178.2 84.5974 175.753 84.2327 170.554 87.4487C169.047 85.2887 170.165 84.5974 170.165 84.5974C173.098 83.911 173.185 81.7703 172.834 79.7639L178.08 75.5495Z" fill="#FFC3BD"/>
    <path d="M171.653 86.8007C173.362 87.0407 173.899 89.6279 173.899 89.6279C173.899 89.6279 178.013 86.7191 179.314 84.6695C178.797 84.3753 178.295 84.0549 177.811 83.7095C177.811 83.7095 172.651 85.8119 171.653 86.8007Z" fill="white"/>
    <path d="M170.021 86.5222C170.021 86.5222 168.542 86.9207 168.009 89.0039C167.616 85.2311 169.377 84.5927 169.377 84.5927C169.847 84.3299 170.398 84.2496 170.923 84.367C170.546 84.566 170.25 84.8897 170.085 85.2829C169.921 85.676 169.898 86.1141 170.021 86.5222Z" fill="white"/>
    <path opacity="0.2" d="M175.944 77.2679L172.838 79.7591C172.929 80.2338 172.978 80.7157 172.982 81.1991C174.096 81.0359 175.699 79.8263 175.901 78.6743C176 78.2119 176.015 77.7354 175.944 77.2679Z" fill="black"/>
    <path d="M180.293 70.3655C179.506 74.5367 179.261 76.3175 176.88 78.3191C173.299 81.3287 168.374 79.7351 167.904 75.4823C167.482 71.6423 168.835 65.4695 173.136 64.0871C174.05 63.7608 175.035 63.6848 175.989 63.8668C176.942 64.0489 177.83 64.4825 178.56 65.1227C179.29 65.7629 179.835 66.5865 180.14 67.5083C180.444 68.43 180.497 69.4164 180.293 70.3655Z" fill="#FFC3BD"/>
    <path d="M180.399 72.5543C177.889 73.5479 176.247 69.5495 176.991 66.7943C172.633 68.8247 165.471 65.8775 166.561 62.9831C168.173 64.1975 169.138 63.7991 169.138 63.7991C169.138 63.7991 182.636 55.1591 181.589 62.7959C189.121 65.7959 184.887 71.1095 180.399 72.5543Z" fill="#263238"/>
    <path d="M170.808 60.3766C170.098 60.8566 170.578 62.7238 174.269 61.039L175.647 60.6935C172.618 63.3287 169.858 65.0663 168.399 63.9815C166.939 62.8967 168.135 59.8918 170.808 60.3766Z" fill="#263238"/>
    <path d="M173.679 71.0759C173.626 71.4311 173.405 71.7047 173.199 71.6855C172.992 71.6663 172.829 71.3687 172.877 71.0183C172.925 70.6679 173.155 70.3895 173.381 70.4087C173.607 70.4279 173.731 70.7063 173.679 71.0759Z" fill="#263238"/>
    <path d="M169.44 70.8071C169.387 71.1623 169.162 71.4311 168.936 71.4167C168.711 71.4023 168.571 71.0999 168.619 70.7447C168.667 70.3895 168.893 70.1207 169.123 70.1399C169.354 70.1591 169.464 70.4519 169.44 70.8071Z" fill="#263238"/>
    <path d="M169.195 70.1639L168.398 69.8567C168.398 69.8567 168.73 70.5527 169.195 70.1639Z" fill="#263238"/>
    <path d="M170.52 71.3015C170.095 72.09 169.571 72.8207 168.96 73.4759C169.122 73.6183 169.314 73.7218 169.522 73.7784C169.73 73.8349 169.948 73.8431 170.16 73.8022L170.52 71.3015Z" fill="#ED847E"/>
    <path d="M171.964 75.3959C171.768 75.4128 171.571 75.4128 171.374 75.3959C171.361 75.3955 171.348 75.3921 171.336 75.3861C171.324 75.38 171.313 75.3714 171.305 75.3609C171.297 75.3504 171.291 75.3381 171.288 75.3251C171.285 75.3121 171.285 75.2985 171.288 75.2855C171.291 75.2579 171.305 75.2327 171.326 75.2149C171.348 75.1971 171.375 75.188 171.403 75.1895C171.847 75.2231 172.293 75.1569 172.708 74.9958C173.124 74.8347 173.498 74.5827 173.803 74.2583C173.822 74.24 173.848 74.2299 173.875 74.2299C173.902 74.2299 173.927 74.24 173.947 74.2583C173.965 74.2778 173.975 74.3035 173.975 74.3303C173.975 74.357 173.965 74.3827 173.947 74.4023C173.432 74.9672 172.725 75.3212 171.964 75.3959Z" fill="#263238"/>
    <path d="M181.143 73.4759C180.964 73.8409 180.71 74.164 180.397 74.4237C180.084 74.6835 179.72 74.8741 179.328 74.9831C178.368 75.2183 177.96 74.0951 178.311 72.9911C178.627 71.9975 179.515 70.6775 180.456 70.9415C181.397 71.2055 181.656 72.5159 181.143 73.4759Z" fill="#FFC3BD"/>
    <path d="M174.908 68.6087C174.877 68.6106 174.847 68.6066 174.818 68.5967C174.789 68.5868 174.762 68.5713 174.74 68.5511C174.531 68.3557 174.283 68.2081 174.012 68.1186C173.741 68.0291 173.454 67.9997 173.17 68.0327C173.142 68.0398 173.112 68.0412 173.083 68.0369C173.054 68.0325 173.026 68.0225 173.001 68.0073C172.976 67.9921 172.955 67.9721 172.937 67.9484C172.92 67.9248 172.908 67.8979 172.901 67.8695C172.898 67.8094 172.919 67.7505 172.958 67.705C172.997 67.6595 173.053 67.6307 173.112 67.6247C173.471 67.5776 173.836 67.61 174.181 67.7195C174.526 67.829 174.843 68.0129 175.109 68.2583C175.129 68.2786 175.143 68.303 175.152 68.3296C175.161 68.3563 175.164 68.3846 175.161 68.4125C175.158 68.4404 175.148 68.4673 175.134 68.4913C175.119 68.5152 175.099 68.5356 175.076 68.5511C175.028 68.5891 174.969 68.6094 174.908 68.6087Z" fill="#263238"/>
    <path d="M179.405 121.317C183.279 119.133 186.975 115.644 190.57 111.41C186.461 105.617 182.299 100.476 177.989 97.2262C174.226 101.167 170.496 104.57 166.819 107.129C170.976 110.613 175.2 115.778 179.405 121.317Z" fill="white"/>
    <path d="M168.389 68.6086C168.364 68.6137 168.338 68.6133 168.314 68.6076C168.289 68.6018 168.265 68.5907 168.245 68.575C168.203 68.5396 168.177 68.4892 168.171 68.4345C168.166 68.3798 168.182 68.3252 168.216 68.2822C168.413 68.0105 168.669 67.7874 168.965 67.6301C169.262 67.4728 169.59 67.3856 169.925 67.375C169.952 67.3761 169.979 67.3828 170.003 67.3948C170.027 67.4068 170.049 67.4238 170.066 67.4446C170.083 67.4655 170.096 67.4897 170.103 67.5158C170.11 67.5418 170.112 67.5691 170.108 67.5958C170.101 67.6506 170.074 67.7008 170.032 67.7371C169.991 67.7733 169.937 67.7931 169.882 67.7927C169.616 67.8039 169.356 67.8759 169.122 68.0032C168.889 68.1305 168.687 68.3097 168.533 68.5271C168.517 68.5505 168.495 68.57 168.47 68.5842C168.446 68.5983 168.418 68.6066 168.389 68.6086Z" fill="#263238"/>
    <path d="M181.595 121.372L191.679 112.334C192.018 112.03 192.047 111.508 191.742 111.168L179.706 97.7395C179.402 97.3999 178.88 97.3714 178.54 97.6757L168.457 106.713C168.117 107.018 168.089 107.54 168.393 107.879L180.43 121.308C180.734 121.648 181.256 121.676 181.595 121.372Z" fill="#008273"/>
    <path opacity="0.4" d="M181.595 121.372L191.679 112.334C192.018 112.03 192.047 111.508 191.742 111.168L179.706 97.7395C179.402 97.3999 178.88 97.3714 178.54 97.6757L168.457 106.713C168.117 107.018 168.089 107.54 168.393 107.879L180.43 121.308C180.734 121.648 181.256 121.676 181.595 121.372Z" fill="white"/>
    <path d="M173.457 70.4134L172.661 70.1111C172.661 70.1111 172.992 70.8022 173.457 70.4134Z" fill="#263238"/>
    <path d="M174.072 115.159L174.446 113.892C174.515 113.659 174.637 113.446 174.804 113.27C174.971 113.094 175.178 112.96 175.406 112.879L177.6 112.125C178.033 111.978 178.494 111.935 178.947 112.001C179.399 112.067 179.829 112.239 180.202 112.505L180.682 112.841C180.202 114.981 178.104 116.945 178.104 116.945L177.571 117.569C177.465 117.7 177.333 117.809 177.185 117.889C177.036 117.969 176.873 118.02 176.704 118.036C176.536 118.053 176.366 118.037 176.205 117.988C176.043 117.939 175.892 117.858 175.762 117.751L174.509 116.705C174.294 116.517 174.139 116.271 174.061 115.997C173.984 115.722 173.988 115.431 174.072 115.159Z" fill="#FFC3BD"/>
    <path d="M144.163 88.1638L145.464 88.3654C145.706 88.4031 145.936 88.4981 146.134 88.6426C146.332 88.787 146.492 88.9767 146.602 89.1958L147.639 91.2742C147.844 91.6825 147.948 92.1342 147.942 92.5911C147.936 93.0481 147.821 93.4969 147.605 93.8998L147.336 94.4086C145.152 94.2166 142.93 92.3974 142.93 92.3974L142.239 91.951C142.094 91.8626 141.969 91.7466 141.87 91.6096C141.771 91.4727 141.699 91.3175 141.66 91.153C141.621 90.9885 141.614 90.8179 141.641 90.6509C141.668 90.4839 141.727 90.3238 141.816 90.1798L142.685 88.8022C142.844 88.5648 143.068 88.3782 143.33 88.2649C143.592 88.1517 143.882 88.1166 144.163 88.1638Z" fill="#FFC3BD"/>
    <path d="M140.559 95.7623C140.541 95.7619 140.522 95.7574 140.506 95.7491C140.489 95.7408 140.475 95.7289 140.463 95.7143C140.256 95.395 140.172 95.0109 140.228 94.6343C140.271 94.4455 140.352 94.2675 140.466 94.1108C140.58 93.954 140.724 93.8219 140.89 93.7223C140.903 93.7143 140.916 93.7088 140.931 93.7062C140.945 93.7035 140.96 93.7038 140.974 93.7069C140.988 93.7101 141.002 93.716 141.014 93.7244C141.026 93.7328 141.036 93.7435 141.044 93.7559C141.052 93.7678 141.058 93.7813 141.061 93.7955C141.064 93.8097 141.064 93.8244 141.061 93.8386C141.059 93.8529 141.053 93.8665 141.045 93.8786C141.037 93.8908 141.027 93.9013 141.015 93.9095C140.874 93.9921 140.751 94.1022 140.654 94.2333C140.557 94.3645 140.487 94.5139 140.449 94.6727C140.404 94.991 140.476 95.3147 140.65 95.5847C140.661 95.6017 140.668 95.6213 140.669 95.6415C140.67 95.6617 140.665 95.6818 140.656 95.6998C140.647 95.7178 140.633 95.7331 140.616 95.744C140.599 95.755 140.579 95.7613 140.559 95.7623Z" fill="#E0E0E0"/>
    <path d="M143.04 89.7959L144.797 91.7159C144.851 91.7707 144.882 91.8449 144.882 91.9222C144.882 91.9996 144.851 92.0738 144.797 92.1287L142.435 94.2839C142.4 94.3156 142.358 94.3383 142.312 94.35C142.266 94.3617 142.217 94.3621 142.171 94.3511L140.64 93.9815C140.584 93.9673 140.533 93.9363 140.494 93.8926C140.456 93.8489 140.431 93.7945 140.424 93.7367L140.16 92.1959C140.154 92.1485 140.159 92.1005 140.175 92.0555C140.191 92.0105 140.217 91.9698 140.251 91.9367L142.613 89.7863C142.641 89.7576 142.675 89.7351 142.712 89.72C142.749 89.7049 142.789 89.6976 142.829 89.6985C142.869 89.6994 142.908 89.7085 142.944 89.7252C142.981 89.742 143.013 89.766 143.04 89.7959ZM140.731 93.6743C140.765 93.7105 140.805 93.7398 140.85 93.7605C140.894 93.7812 140.943 93.7929 140.992 93.7949C141.041 93.7969 141.09 93.7892 141.137 93.7722C141.183 93.7552 141.225 93.7293 141.262 93.6959C141.298 93.6624 141.327 93.6222 141.348 93.5775C141.369 93.5327 141.38 93.4844 141.382 93.4351C141.384 93.3859 141.377 93.3367 141.36 93.2904C141.343 93.2442 141.317 93.2017 141.283 93.1655C141.249 93.1303 141.208 93.1024 141.163 93.0834C141.117 93.0643 141.069 93.0545 141.019 93.0545C140.97 93.0545 140.921 93.0643 140.876 93.0834C140.831 93.1024 140.79 93.1303 140.755 93.1655C140.717 93.1969 140.686 93.2356 140.663 93.2792C140.64 93.3228 140.626 93.3704 140.622 93.4195C140.617 93.4685 140.623 93.518 140.637 93.565C140.652 93.612 140.676 93.6557 140.707 93.6934L140.731 93.6743Z" fill="#263238"/>
    <path d="M140.602 95.4406C140.851 95.4925 141.073 95.6303 141.23 95.8299C141.387 96.0295 141.469 96.2781 141.461 96.5321C141.453 96.786 141.356 97.0289 141.186 97.2182C141.017 97.4075 140.786 97.531 140.535 97.5671L139.992 100.087L139.747 100.245L139.56 99.9527V99.4343L139.695 99.0311L139.642 98.7671L139.719 98.4071V98.0662V97.8406L139.776 97.4086C139.589 97.2918 139.442 97.1197 139.356 96.916C139.27 96.7123 139.249 96.487 139.296 96.2711C139.326 96.1302 139.384 95.9967 139.466 95.8785C139.549 95.7602 139.653 95.6594 139.775 95.5822C139.896 95.5049 140.032 95.4525 140.174 95.4282C140.316 95.4039 140.462 95.4082 140.602 95.4406ZM140.4 96.4006C140.494 96.4135 140.589 96.3907 140.666 96.3366C140.743 96.2826 140.797 96.2014 140.817 96.1092C140.837 96.017 140.822 95.9207 140.774 95.8394C140.726 95.7582 140.649 95.6981 140.559 95.6711C140.461 95.651 140.36 95.67 140.277 95.7238C140.193 95.7777 140.134 95.8621 140.112 95.959C140.099 96.0521 140.121 96.1467 140.175 96.2241C140.228 96.3014 140.309 96.3559 140.4 96.3767V96.4006Z" fill="#008273"/>
    <path d="M140.558 95.7623C140.539 95.7626 140.519 95.7574 140.502 95.7472C140.485 95.737 140.471 95.7223 140.462 95.7047C140.454 95.6923 140.448 95.6783 140.446 95.6636C140.443 95.6489 140.443 95.6337 140.447 95.6192C140.451 95.6047 140.457 95.5911 140.467 95.5793C140.476 95.5676 140.488 95.558 140.501 95.5511C140.768 95.3756 140.965 95.1124 141.058 94.8071C141.088 94.6462 141.086 94.481 141.051 94.321C141.017 94.1611 140.95 94.0097 140.856 93.8759C140.848 93.8633 140.843 93.8493 140.841 93.8347C140.839 93.8202 140.839 93.8053 140.843 93.7909C140.846 93.7766 140.853 93.7632 140.862 93.7514C140.871 93.7396 140.882 93.7297 140.894 93.7223C140.92 93.7074 140.949 93.7025 140.978 93.7088C141.006 93.715 141.031 93.7318 141.048 93.7559C141.158 93.9153 141.235 94.0952 141.273 94.2849C141.312 94.4746 141.312 94.6701 141.274 94.8599C141.172 95.2256 140.937 95.5404 140.616 95.7431C140.6 95.7558 140.579 95.7626 140.558 95.7623Z" fill="#E0E0E0"/>
    <path d="M186.087 89.3159C186.245 89.6615 186.351 89.9063 186.471 90.1943C186.591 90.4823 186.691 90.7463 186.797 91.0199C187.008 91.5719 187.191 92.1286 187.368 92.6806C187.717 93.7978 188.009 94.9321 188.242 96.0791C188.482 97.2373 188.652 98.409 188.751 99.5878C188.856 100.785 188.881 101.987 188.827 103.188V103.394C188.821 103.525 188.802 103.656 188.77 103.783C188.58 104.498 188.298 105.186 187.93 105.828C187.626 106.357 187.293 106.868 186.931 107.359C186.267 108.257 185.544 109.11 184.767 109.913C184.008 110.69 183.231 111.425 182.429 112.125C181.627 112.826 180.811 113.484 179.919 114.117C179.617 114.327 179.251 114.425 178.885 114.394C178.519 114.362 178.175 114.204 177.914 113.946C177.652 113.687 177.489 113.346 177.453 112.98C177.417 112.614 177.51 112.247 177.715 111.943V111.909L179.419 109.442C179.981 108.617 180.538 107.801 181.056 106.98C181.575 106.159 182.069 105.338 182.496 104.556C182.692 104.188 182.867 103.81 183.019 103.423C183.13 103.157 183.205 102.878 183.24 102.593L183.178 103.188C183.096 102.228 182.995 101.292 182.823 100.332C182.65 99.3719 182.448 98.4119 182.199 97.4519C181.949 96.4919 181.671 95.5318 181.359 94.6006C181.205 94.1206 181.037 93.6407 180.879 93.1991L180.624 92.5127L180.389 91.8934L180.327 91.7303C180.059 90.977 180.089 90.1498 180.411 89.4182C180.734 88.6866 181.324 88.1062 182.061 87.7961C182.798 87.486 183.626 87.4696 184.374 87.7505C185.123 88.0313 185.736 88.588 186.087 89.3062V89.3159Z" fill="#FFC3BD"/>
    <path d="M181.017 84.7895C183.897 85.2311 185.054 86.1095 187.406 91.8983C186.341 94.0583 181.339 96.1223 181.339 96.1223C181.339 96.1223 177.345 89.8823 181.017 84.7895Z" fill="#263238"/>
  </g>
  <defs>
    <clipPath id="clip0_27_640">
      <rect width="240" height="240" fill="white" transform="translate(0 0.0358582)"/>
    </clipPath>
  </defs>
</svg>