<svg xmlns="http://www.w3.org/2000/svg" width="120" height="120" viewBox="0 0 120 120" fill="none">
  <circle cx="60" cy="60" r="59.5" fill="#CCE1E1" stroke="#7DE1E1"/>
  <path d="M60 15C65.4169 15 70.6089 15.9583 75.4184 17.7085L70.042 23.0804C61.9054 20.8679 53.2658 21.4059 45.4666 24.6107C37.6674 27.8156 31.1457 33.5076 26.9156 40.8018C22.6855 48.0959 20.984 56.5834 22.0758 64.9444C23.1677 73.3054 26.9915 81.0714 32.9529 87.0347C38.9142 92.998 46.6789 96.8245 55.0395 97.9191C63.4002 99.0137 71.8882 97.3151 79.1838 93.0875C86.4794 88.8598 92.1736 82.34 95.381 74.5419C98.5885 66.7437 99.1294 58.1043 96.9196 49.967L102.292 44.5951C104.087 49.5325 105.004 54.7463 105 60C105 84.853 84.853 105 60 105C35.147 105 15 84.853 15 60C15 35.147 35.147 15 60 15ZM60 33.0054C62.2796 33.0039 64.5502 33.2911 66.7576 33.8602V40.9103C62.4284 39.3787 57.707 39.3643 53.3685 40.8697C49.03 42.375 45.3321 45.3105 42.8819 49.1944C40.4316 53.0783 39.3745 57.6799 39.8841 62.2437C40.3938 66.8076 42.4398 71.0626 45.6864 74.3104C48.933 77.5582 53.1873 79.6058 57.751 80.1171C62.3146 80.6283 66.9166 79.5729 70.8014 77.1241C74.6862 74.6753 77.6231 70.9785 79.13 66.6405C80.6368 62.3026 80.6242 57.5812 79.0942 53.2513H86.1443C87.5517 58.7025 87.2197 64.4573 85.1945 69.7104C83.1693 74.9634 79.5524 79.4519 74.8499 82.5475C70.1475 85.6432 64.5948 87.1911 58.9691 86.9746C53.3433 86.7582 47.926 84.7882 43.4753 81.3404C39.0246 77.8927 35.7632 73.1396 34.1476 67.7464C32.532 62.3533 32.6431 56.59 34.4652 51.2631C36.2874 45.9362 39.7294 41.3123 44.3096 38.0385C48.8899 34.7648 54.3791 33.005 60.009 33.0054M69.0072 60C69.0066 61.934 68.3829 63.8163 67.2285 65.368C66.0741 66.9197 64.4505 68.0582 62.5984 68.6147C60.7462 69.1712 58.764 69.1162 56.9455 68.4578C55.1271 67.7993 53.5692 66.5725 52.5026 64.9592C51.4361 63.3459 50.9178 61.4318 51.0245 59.5008C51.1312 57.5698 51.8572 55.7245 53.0949 54.2384C54.3326 52.7524 56.0162 51.7046 57.8961 51.2505C59.776 50.7964 61.7522 50.96 63.5318 51.7172L71.2702 43.9787L71.2567 29.6311C71.2575 28.7364 71.6136 27.8787 72.2465 27.2465L83.4943 15.9988C83.9662 15.5275 84.5672 15.2066 85.2213 15.0766C85.8755 14.9467 86.5535 15.0135 87.1697 15.2687C87.7859 15.5238 88.3127 15.9558 88.6835 16.5102C89.0543 17.0646 89.2526 17.7164 89.2531 18.3833V30.7558H101.626C102.293 30.7564 102.944 30.9547 103.499 31.3255C104.053 31.6963 104.485 32.2231 104.74 32.8393C104.995 33.4555 105.062 34.1335 104.932 34.7877C104.802 35.4418 104.481 36.0428 104.01 36.5147L92.7624 47.7624C92.1302 48.3954 91.2725 48.7515 90.3779 48.7522H76.0258L68.2873 56.4907C68.7462 57.5705 68.9982 58.7537 68.9982 60M88.9787 42.0036L93.4778 37.5045H85.8743C84.9794 37.5045 84.1211 37.149 83.4883 36.5162C82.8555 35.8834 82.5 35.0251 82.5 34.1302V26.5267L78.0054 31.0258V41.7381L78.2708 42.0081L88.9787 42.0036Z" fill="#003D36"/>
</svg>