<svg xmlns="http://www.w3.org/2000/svg" width="16" height="17" viewBox="0 0 16 17" fill="none">
  <path d="M7.52169 2.83806C7.67534 2.52677 7.75217 2.37112 7.85647 2.32139C7.94722 2.27812 8.05264 2.27812 8.14339 2.32139C8.24769 2.37112 8.32452 2.52677 8.47817 2.83806L9.93596 5.79137C9.98132 5.88327 10.004 5.92922 10.0372 5.9649C10.0665 5.99649 10.1017 6.02208 10.1408 6.04026C10.185 6.0608 10.2357 6.06821 10.3371 6.08303L13.5979 6.55965C13.9413 6.60984 14.113 6.63494 14.1924 6.71881C14.2616 6.79178 14.2941 6.89205 14.2809 6.9917C14.2658 7.10623 14.1415 7.2273 13.8929 7.46944L11.5342 9.76679C11.4607 9.83841 11.4239 9.87422 11.4002 9.91682C11.3792 9.95455 11.3657 9.99599 11.3605 10.0389C11.3547 10.0873 11.3633 10.1378 11.3807 10.239L11.9372 13.4839C11.9959 13.8262 12.0253 13.9973 11.9701 14.0988C11.9221 14.1872 11.8368 14.2492 11.738 14.2675C11.6243 14.2886 11.4707 14.2077 11.1633 14.0461L8.24817 12.5131C8.15734 12.4653 8.11193 12.4414 8.06408 12.432C8.02172 12.4237 7.97814 12.4237 7.93578 12.432C7.88793 12.4414 7.84252 12.4653 7.75169 12.5131L4.83653 14.0461C4.5292 14.2077 4.37553 14.2886 4.2619 14.2675C4.16304 14.2492 4.07773 14.1872 4.02974 14.0988C3.97459 13.9973 4.00394 13.8262 4.06264 13.4839L4.61918 10.239C4.63653 10.1378 4.6452 10.0873 4.63933 10.0389C4.63413 9.99599 4.62066 9.95455 4.59966 9.91682C4.57593 9.87422 4.53917 9.83841 4.46564 9.76679L2.10696 7.46944C1.85836 7.2273 1.73406 7.10623 1.71894 6.9917C1.70578 6.89205 1.73829 6.79178 1.80742 6.71881C1.88688 6.63494 2.05857 6.60984 2.40195 6.55965L5.66279 6.08303C5.7642 6.06821 5.81491 6.0608 5.85906 6.04026C5.89816 6.02208 5.93336 5.99649 5.96271 5.9649C5.99586 5.92922 6.01854 5.88327 6.0639 5.79137L7.52169 2.83806Z" stroke="white" stroke-width="1.33333" stroke-linecap="round" stroke-linejoin="round"/>
</svg>