<svg xmlns="http://www.w3.org/2000/svg" width="200" height="184" viewBox="0 0 200 184" fill="none">
  <path d="M51.238 31.4826C53.3969 18.4132 44.5522 6.06806 31.4827 3.90911C18.4132 1.75015 6.06808 10.5949 3.90913 23.6644C1.75018 36.7339 10.5949 49.079 23.6644 51.2379C36.7339 53.3969 49.079 44.5521 51.238 31.4826Z" fill="white"/>
  <path d="M51.5573 27.5773C51.5306 27.4496 51.5147 27.3198 51.51 27.1894C51.51 26.9103 51.4674 26.5318 51.4296 26.0493C51.4296 25.7986 51.3964 25.5194 51.3775 25.2119C51.3586 24.9044 51.2782 24.5733 51.2214 24.2137C51.1122 23.3795 50.9431 22.5542 50.7152 21.7443C50.1524 19.5059 49.2544 17.3655 48.0518 15.3955C45.2086 10.6493 40.8008 7.04183 35.586 5.19335C30.3713 3.34488 24.6754 3.37089 19.4778 5.26692C18.4147 5.65093 17.3794 6.10774 16.3791 6.63412C15.3626 7.19245 14.3885 7.82494 13.465 8.52644C12.517 9.22798 11.6176 9.99297 10.7731 10.8161C9.93591 11.6802 9.15828 12.6001 8.44558 13.5695C6.96895 15.5536 5.82199 17.7628 5.04888 20.1121C3.41509 24.9743 3.41509 30.2372 5.04888 35.0993C5.82227 37.4491 6.96747 39.6596 8.44085 41.6467C9.15496 42.6149 9.93252 43.5347 10.7684 44.4C11.6167 45.2223 12.5175 45.9887 13.465 46.6945C14.3908 47.3927 15.3646 48.025 16.3791 48.5868C17.3794 49.1117 18.4148 49.5669 19.4778 49.9492C23.4725 51.4008 27.7819 51.7617 31.9624 50.9948C35.2807 50.3693 38.4292 49.0491 41.2013 47.1209C43.9734 45.1927 46.3064 42.7 48.047 39.8064C49.2488 37.8377 50.1467 35.699 50.7105 33.4624C50.9378 32.6508 51.107 31.824 51.2167 30.9882C51.2734 30.6287 51.3397 30.2975 51.3728 29.99C51.4059 29.6825 51.4106 29.4034 51.4248 29.1527C51.4627 28.6796 51.4863 28.2917 51.5053 28.0173C51.5095 27.8868 51.5253 27.757 51.5526 27.6294C51.561 27.7585 51.561 27.8881 51.5526 28.0173C51.5526 28.2964 51.5526 28.6749 51.5147 29.1574C51.5147 29.4129 51.5147 29.692 51.4863 29.9995C51.4579 30.307 51.4012 30.6476 51.3539 31.0119C51.2567 31.8533 51.0986 32.6865 50.8808 33.505C50.3436 35.7725 49.4612 37.944 48.2647 39.9436C46.5197 42.8822 44.1703 45.4166 41.372 47.3789C38.5738 49.3411 35.3906 50.6865 32.0333 51.3259C27.7829 52.1282 23.3951 51.777 19.3264 50.3088C18.2426 49.9214 17.1867 49.4598 16.1662 48.9274C15.1344 48.3643 14.1418 47.7321 13.1953 47.0351C12.2284 46.3194 11.3102 45.5403 10.4467 44.7028C9.59594 43.822 8.80568 42.8848 8.08131 41.8974C6.57555 39.8741 5.40473 37.6219 4.61364 35.227C2.94845 30.268 2.94845 24.9008 4.61364 19.9418C5.40344 17.5455 6.57608 15.2929 8.08604 13.2714C8.8089 12.2829 9.59925 11.3455 10.4514 10.4661C11.315 9.62534 12.2349 8.84452 13.2048 8.12906C14.149 7.42876 15.1418 6.7964 16.1757 6.23674C17.1952 5.70239 18.2512 5.24077 19.3359 4.85534C23.402 3.3895 27.7869 3.04151 32.0333 3.84769C35.3977 4.49118 38.5865 5.84368 41.3876 7.81521C44.1886 9.78674 46.5378 12.3321 48.2789 15.282C49.4754 17.2816 50.3578 19.4531 50.895 21.7206C51.1129 22.5407 51.271 23.3755 51.3681 24.2185C51.4154 24.5827 51.4721 24.9139 51.5005 25.2261C51.5289 25.5384 51.5005 25.8128 51.5289 26.0682C51.5289 26.5413 51.5573 26.9292 51.5667 27.2083C51.571 27.3314 51.5678 27.4546 51.5573 27.5773Z" fill="#263238"/>
  <path d="M55.7107 47.2149C55.7107 47.8784 55.5139 48.5271 55.1451 49.0788C54.7763 49.6305 54.2522 50.0604 53.6391 50.3141C53.0259 50.5678 52.3512 50.634 51.7005 50.5042C51.0497 50.3744 50.4521 50.0545 49.9832 49.5849C49.5143 49.1153 49.1952 48.5173 49.0663 47.8663C48.9374 47.2154 49.0045 46.5408 49.2591 45.928C49.5137 45.3152 49.9444 44.7917 50.4966 44.4237C51.0488 44.0557 51.6977 43.8598 52.3613 43.8607C52.8016 43.8607 53.2375 43.9475 53.6442 44.1161C54.0508 44.2847 54.4203 44.5319 54.7314 44.8434C55.0425 45.1549 55.2891 45.5247 55.4571 45.9316C55.6252 46.3386 55.7113 46.7746 55.7107 47.2149Z" fill="white"/>
  <path d="M55.7109 47.2148C55.6683 47.2148 55.6683 46.9168 55.517 46.4201C55.3069 45.7229 54.875 45.1133 54.2869 44.6839C53.8603 44.374 53.3637 44.1744 52.8413 44.1026C52.3189 44.0308 51.7868 44.0891 51.2924 44.2723C50.6928 44.4963 50.1759 44.8982 49.811 45.4241C49.4461 45.9499 49.2506 46.5747 49.2506 47.2148C49.2506 47.8549 49.4461 48.4797 49.811 49.0056C50.1759 49.5315 50.6928 49.9333 51.2924 50.1574C51.7868 50.3406 52.3189 50.3989 52.8413 50.3271C53.3637 50.2553 53.8603 50.0556 54.2869 49.7458C54.874 49.3154 55.3056 48.7062 55.517 48.0096C55.6683 47.5365 55.6683 47.2148 55.7109 47.2148C55.7855 47.4906 55.7855 47.7812 55.7109 48.0569C55.5547 48.8312 55.1268 49.5242 54.5046 50.0107C54.0396 50.3787 53.489 50.6229 52.9041 50.7205C52.3192 50.8181 51.7192 50.766 51.1599 50.569C50.4663 50.3237 49.8657 49.8695 49.4409 49.2688C49.0162 48.6681 48.7881 47.9505 48.7881 47.2148C48.7881 46.4791 49.0162 45.7615 49.4409 45.1608C49.8657 44.5601 50.4663 44.1059 51.1599 43.8607C51.719 43.6623 52.3193 43.6095 52.9044 43.7072C53.4896 43.8048 54.0402 44.0498 54.5046 44.4189C55.1268 44.9055 55.5547 45.5984 55.7109 46.3727C55.7848 46.6486 55.7848 46.939 55.7109 47.2148Z" fill="#263238"/>
  <path d="M19.0805 30.0326C20.2641 30.0326 21.2236 29.0731 21.2236 27.8895C21.2236 26.706 20.2641 25.7465 19.0805 25.7465C17.897 25.7465 16.9375 26.706 16.9375 27.8895C16.9375 29.0731 17.897 30.0326 19.0805 30.0326Z" fill="#263238"/>
  <path d="M27.5723 30.0326C28.7558 30.0326 29.7153 29.0731 29.7153 27.8895C29.7153 26.706 28.7558 25.7465 27.5723 25.7465C26.3887 25.7465 25.4292 26.706 25.4292 27.8895C25.4292 29.0731 26.3887 30.0326 27.5723 30.0326Z" fill="#263238"/>
  <path d="M36.0639 30.0326C37.2475 30.0326 38.207 29.0731 38.207 27.8895C38.207 26.706 37.2475 25.7465 36.0639 25.7465C34.8804 25.7465 33.9209 26.706 33.9209 27.8895C33.9209 29.0731 34.8804 30.0326 36.0639 30.0326Z" fill="#263238"/>
  <path d="M144.579 136.712C143.519 136.026 129.388 133.088 129.388 133.088L95.3267 133.978L83.126 136.225C83.126 136.225 80.8646 174.071 81.2005 174.766C81.5364 175.462 106.652 175.036 107.319 175.713C107.986 176.389 131.177 178.887 131.177 178.887L152.64 140.374L144.579 136.712Z" fill="#D29886"/>
  <path d="M176.729 146.344C168.994 139.777 138.41 134.224 136.697 134.224C136.697 134.224 134.332 153.279 113.043 153.279C94.9387 153.279 90.6147 134.829 90.6147 134.829L77.3969 136.906C75.3627 137.294 57.2863 141.528 54.3201 142.37C48.1464 144.12 35.4963 148.6 31.8299 161.97C30.4769 166.918 30.5148 175.826 28.8921 182.932H61.0899C61.0899 182.932 165.04 183.022 165.049 182.932L200 182.96C200 182.96 184.933 153.303 176.729 146.344Z" fill="#008273"/>
  <path d="M57.2814 183.017C57.2151 183.017 55.8621 179.492 54.2253 175.098C52.5884 170.703 51.3348 167.117 51.3868 167.093C51.4389 167.069 52.806 170.613 54.4429 175.012C56.0798 179.412 57.3429 182.993 57.2814 183.017Z" fill="#263238"/>
  <path d="M160.696 182.856C160.661 182.664 160.645 182.469 160.649 182.274C160.649 181.848 160.625 181.328 160.611 180.685C160.611 179.289 160.564 177.463 160.536 175.443C160.507 173.423 160.403 171.549 160.304 170.211C160.256 169.581 160.219 169.052 160.186 168.631C160.16 168.436 160.152 168.24 160.162 168.044C160.225 168.229 160.265 168.421 160.28 168.616C160.342 168.99 160.408 169.529 160.479 170.196C160.621 171.535 160.739 173.39 160.782 175.438C160.824 177.487 160.81 179.341 160.782 180.685C160.782 181.314 160.753 181.848 160.739 182.274C160.747 182.469 160.733 182.664 160.696 182.856Z" fill="#263238"/>
  <g opacity="0.3">
    <path d="M99.5369 183.036C100.994 176.786 102.621 170.589 103.047 163.748C103.051 162.579 103.23 161.416 103.577 160.3C104.429 158.057 106.808 156.397 106.889 153.998C106.945 151.486 104.05 149.613 101.6 150.086C99.149 150.559 97.285 152.754 96.4477 155.124C95.6103 157.494 95.5914 160.058 95.5015 162.57C95.2366 168.948 90.6193 176.824 89.167 183.036" fill="black"/>
  </g>
  <path d="M90.6953 25.2119C79.7719 27.8517 69.5202 38.4155 64.9361 48.4921C60.352 58.5687 60.1012 68.1013 61.5015 79.0483C62.3484 85.6714 64.2076 92.4223 65.4139 98.7379C66.6676 105.314 63.5216 114.52 59.9451 120.206C58.5827 122.354 56.766 124.677 57.4189 127.123C58.0197 129.389 60.5128 130.614 62.8167 131.215C67.5706 132.448 72.5804 132.272 77.2362 130.709C77.0312 132.33 76.8262 133.951 76.6212 135.572C89.0584 135.321 101.037 131.215 112.769 127.156C116.7 125.798 120.811 124.317 123.57 121.261C125.088 119.572 126.096 117.51 127.056 115.466C130.92 107.233 134.339 98.7983 137.298 90.1988" fill="#263238"/>
  <path d="M146.613 40.199C137.152 28.6606 124.492 22.0186 109.585 21.7726C101.174 21.6307 97.6968 23.3811 91.6367 25.0132C85.5765 26.6453 80.1172 29.8954 76.4981 35.0283C72.2073 41.1168 68.6024 47.9386 67.7887 55.3707C66.9561 62.9778 66.1235 70.637 66.6959 78.2725C67.2684 85.908 69.3452 93.5908 73.8394 99.7834L93.2357 103.161C103.96 103.525 114.832 103.875 125.282 101.43C135.732 98.9839 145.885 93.3589 151.481 84.2049C159.268 71.4601 156.042 51.7422 146.613 40.199Z" fill="#263238"/>
  <path d="M129.317 40.0713L103.43 29.7819L96.6654 30.5672C81.4464 30.6239 70.9488 47.4041 70.8495 59.7325C70.7407 73.4234 71.1475 90.1468 73.3189 100.242C77.6949 120.537 95.0191 122.226 95.0191 122.226C95.0191 122.226 94.6643 133.041 94.546 139.858L134.185 136.996L136.177 47.0256C136.114 45.2174 135.374 43.499 134.103 42.2109C132.833 40.9229 131.124 40.1592 129.317 40.0713Z" fill="#D29886"/>
  <path d="M81.0728 76.3612C81.1023 77.0468 81.399 77.6936 81.8995 78.1631C82.3999 78.6326 83.0643 78.8875 83.7504 78.8733C84.0858 78.8815 84.4195 78.8224 84.7317 78.6996C85.0439 78.5767 85.3284 78.3926 85.5683 78.158C85.8081 77.9234 85.9986 77.6431 86.1284 77.3337C86.2582 77.0243 86.3247 76.692 86.3239 76.3565C86.2932 75.6722 85.9968 75.0268 85.4976 74.5577C84.9984 74.0885 84.3359 73.8327 83.651 73.8444C83.3154 73.8362 82.9815 73.8953 82.669 74.0181C82.3565 74.1409 82.0718 74.325 81.8315 74.5595C81.5913 74.794 81.4003 75.0742 81.27 75.3837C81.1397 75.6931 81.0727 76.0255 81.0728 76.3612Z" fill="#263238"/>
  <path d="M75.1781 69.7712C75.5235 70.0835 77.4915 68.5885 80.382 68.475C83.2725 68.3615 85.4581 69.6246 85.7562 69.2792C85.9028 69.1278 85.5338 68.5507 84.5829 67.9593C83.2756 67.1933 81.7721 66.8281 80.259 66.9091C78.772 66.9542 77.3337 67.449 76.1337 68.3283C75.2538 69.0238 74.9794 69.6293 75.1781 69.7712Z" fill="#263238"/>
  <path d="M93.6283 88.737C93.6283 88.5761 91.859 88.368 88.9969 88.1598C88.2683 88.1267 87.5776 88.0226 87.431 87.5353C87.2843 87.0481 87.4925 86.2297 87.7953 85.3687L89.6261 79.7579C92.1618 71.7724 93.95 65.2249 93.6283 65.1256C93.3066 65.0262 90.9933 71.4175 88.4576 79.4031C87.852 81.3711 87.2717 83.2508 86.7166 85.0422C86.4896 85.8748 86.0685 86.8305 86.499 87.8807C86.6173 88.1294 86.791 88.3478 87.0066 88.5192C87.2222 88.6905 87.4742 88.8103 87.7432 88.8694C88.1488 88.9561 88.5636 88.991 88.978 88.9735C91.8685 89.0019 93.6283 88.8978 93.6283 88.737Z" fill="#263238"/>
  <path d="M94.9859 122.203C94.9859 122.203 108.809 122.335 122.003 113.384C122.003 113.384 115.48 127.979 94.8818 127.189L94.9859 122.203Z" fill="#6F4439"/>
  <path d="M75.8784 62.1594C76.3893 62.8217 78.5276 62.2445 81.0822 62.3155C83.6227 62.3155 85.7515 62.9352 86.2861 62.2824C86.5179 61.9654 86.2057 61.3079 85.2926 60.6645C84.0416 59.8807 82.599 59.4564 81.1229 59.438C79.6467 59.4197 78.194 59.808 76.9239 60.5604C75.973 61.1849 75.6513 61.8377 75.8784 62.1594Z" fill="#263238"/>
  <path d="M113.795 75.7557C113.814 76.4408 113.564 77.1059 113.099 77.6095C112.634 78.1132 111.991 78.4155 111.307 78.4522C110.973 78.4847 110.636 78.45 110.315 78.3501C109.995 78.2503 109.698 78.0873 109.441 77.8709C109.184 77.6545 108.974 77.3889 108.821 77.0898C108.669 76.7907 108.578 76.4642 108.554 76.1294C108.535 75.4444 108.785 74.7792 109.25 74.2756C109.715 73.772 110.358 73.4696 111.042 73.4329C111.376 73.3998 111.714 73.434 112.034 73.5336C112.355 73.6332 112.653 73.7961 112.909 74.0127C113.166 74.2292 113.377 74.4951 113.529 74.7944C113.681 75.0938 113.772 75.4207 113.795 75.7557Z" fill="#263238"/>
  <path d="M115.305 68.4987C114.969 68.896 112.703 67.3964 109.604 67.5525C106.506 67.7086 104.32 69.407 103.96 69.0427C103.785 68.8818 104.116 68.1817 105.063 67.4058C106.353 66.401 107.923 65.8209 109.557 65.7453C111.169 65.6518 112.769 66.0761 114.122 66.9564C115.116 67.6566 115.475 68.3189 115.305 68.4987Z" fill="#263238"/>
  <path d="M111.099 58.5782C110.555 59.231 108.36 58.6018 105.735 58.616C103.109 58.5498 100.895 59.1317 100.37 58.4694C100.138 58.1477 100.479 57.4948 101.439 56.8703C102.752 56.0943 104.257 55.7041 105.782 55.7444C107.302 55.7311 108.794 56.153 110.082 56.9602C111.024 57.6036 111.341 58.2517 111.099 58.5782Z" fill="#263238"/>
  <path d="M155.531 53.7007C146.376 35.0709 132.643 22.6525 108.1 21.7632L127.576 69.2177C136.735 82.516 136.73 98.6432 131.895 114.051C130.542 118.366 128.716 123.357 131.252 127.099C133.788 130.841 139.654 130.94 143.476 128.49C146.935 126.271 149.125 122.628 151.079 118.976C150.977 119.648 151.096 120.335 151.42 120.933C151.743 121.53 152.253 122.006 152.872 122.288C154.565 122.969 156.576 122.146 157.787 120.774C158.998 119.402 159.561 117.59 160.02 115.821C161.629 109.604 162.3 103.185 162.608 96.7699C163.308 82.076 162.007 66.9044 155.531 53.7007Z" fill="#263238"/>
  <path d="M132.648 81.4326C132.567 79.9046 134.133 76.2288 135.623 75.8976C139.611 75.0508 146.878 74.9515 147.502 85.1842C148.363 99.1353 134.176 97.1199 134.124 96.7226C134.086 96.4103 132.922 86.698 132.648 81.4326Z" fill="#D29886"/>
  <path d="M137.662 91.3673C137.719 91.32 137.918 91.5234 138.339 91.6842C138.932 91.8981 139.585 91.8727 140.16 91.6133C141.58 90.9793 142.696 88.5619 142.611 86.0451C142.573 84.8464 142.267 83.6713 141.717 82.6058C141.244 81.6124 140.52 80.9359 139.772 80.8507C139.484 80.7885 139.184 80.8304 138.924 80.969C138.664 81.1076 138.462 81.3339 138.353 81.6077C138.192 82.0098 138.296 82.2794 138.225 82.3078C138.154 82.3362 137.908 82.0949 137.989 81.513C138.036 81.1632 138.203 80.8406 138.462 80.6C138.832 80.2916 139.306 80.136 139.787 80.1648C140.865 80.1648 141.896 81.1109 142.459 82.1706C143.125 83.345 143.497 84.6629 143.543 86.012C143.623 88.8268 142.346 91.547 140.364 92.2567C139.995 92.387 139.602 92.4334 139.213 92.3925C138.825 92.3516 138.45 92.2244 138.117 92.0201C137.71 91.7221 137.625 91.4146 137.662 91.3673Z" fill="#6F4439"/>
  <path d="M136.205 75.9354L132.652 80.1932C99.2104 60.0163 87.426 28.2775 89.0959 30.4678C89.0959 30.4678 99.5841 26.1533 110.966 28.1024C122.349 30.0515 143.945 35.7379 143.609 49.1639C143.273 62.5899 136.205 75.9354 136.205 75.9354Z" fill="#263238"/>
  <path d="M91.5515 95.308C91.0784 95.5209 90.856 97.0584 91.0027 97.6734C91.0655 97.9442 91.1923 98.196 91.3726 98.4076C91.5529 98.6191 91.7813 98.7843 92.0387 98.8892C92.4977 99.0375 92.9886 99.0571 93.458 98.946C94.6226 98.7207 95.7586 98.3669 96.8452 97.8911C97.9995 97.418 99.6317 96.3346 100.758 95.748C98.9457 94.8302 96.6134 94.4518 94.688 94.2294C94.0042 94.1006 93.2969 94.2233 92.6963 94.5748" fill="#6F4439"/>
  <path d="M92.0104 95.1945C91.759 95.0277 91.5713 94.781 91.4777 94.4942C91.3841 94.2074 91.3901 93.8974 91.4947 93.6144C91.6091 93.3351 91.7817 93.0833 92.0012 92.8761C92.2207 92.6689 92.4819 92.5109 92.7673 92.4128C93.3392 92.2241 93.9394 92.136 94.5414 92.1526C95.9606 92.1526 97.0014 92.5595 98.326 93.0988C99.6624 93.6253 100.844 94.4813 101.761 95.5872C98.449 95.308 95.4213 94.589 92.0293 95.204" fill="#6F4439"/>
  <path d="M91.2867 98.4635C91.2583 98.4918 91.036 98.3688 90.8136 97.9904C90.6821 97.6929 90.6122 97.3719 90.6081 97.0466C90.604 96.7214 90.6659 96.3987 90.79 96.0981C90.9849 95.6664 91.278 95.2863 91.646 94.9881C92.014 94.6899 92.4467 94.4819 92.9094 94.3808C93.9688 94.1356 95.065 94.0923 96.1405 94.2531C98.0418 94.4632 99.9178 94.8593 101.742 95.4357C103.161 95.8757 103.97 96.2305 103.942 96.3251C103.913 96.4198 103.029 96.2494 101.609 95.9419C99.7818 95.5233 97.9323 95.2074 96.0695 94.9958C95.0787 94.846 94.0699 94.862 93.0844 95.0431C92.7093 95.1074 92.3527 95.2529 92.0398 95.4695C91.7268 95.686 91.4649 95.9684 91.2725 96.2968C91.045 96.7757 90.985 97.3172 91.1022 97.8343C91.1968 98.2175 91.3293 98.402 91.2867 98.4635Z" fill="#263238"/>
  <path d="M103.057 105.418C102.995 105.475 102.522 104.902 101.557 104.259C100.316 103.401 98.8509 102.926 97.3427 102.891C95.8345 102.857 94.3492 103.265 93.0702 104.065C92.0767 104.67 91.5799 105.219 91.5184 105.158C91.4569 105.096 91.8875 104.486 92.8762 103.776C94.1803 102.846 95.7502 102.363 97.3514 102.399C98.9527 102.435 100.499 102.988 101.761 103.975C102.721 104.727 103.09 105.389 103.057 105.418Z" fill="#6F4439"/>
  <path d="M137.558 103.866C140.273 103.866 142.474 101.665 142.474 98.9507C142.474 96.2361 140.273 94.0355 137.558 94.0355C134.844 94.0355 132.643 96.2361 132.643 98.9507C132.643 101.665 134.844 103.866 137.558 103.866Z" fill="#455A64"/>
  <path d="M90.3404 25.2119C90.0755 25.9641 103.038 23.2628 108.53 26.5933C114.023 29.9238 118.28 34.9337 121.985 40.1754C129.459 50.7582 135.51 62.9967 136.177 75.9355C137.634 75.3394 141.632 75.5948 143.59 76.839C143.59 76.839 150.459 35.0236 109.552 21.7726C109.571 21.7726 92.7531 18.3854 90.3404 25.2119Z" fill="#455A64"/>
  <path d="M93.8838 22.5768C94.1291 22.4643 94.384 22.3741 94.6454 22.3072C95.3844 22.0726 96.1405 21.8954 96.9068 21.7773C97.4082 21.7253 97.9617 21.607 98.5767 21.5976L99.5229 21.5455H100.559C102.186 21.6132 103.802 21.8414 105.384 22.2268C109.491 23.2932 113.368 25.0983 116.828 27.5536C121.122 30.4834 124.944 34.0503 128.163 38.1317C131.392 42.1893 134.012 46.6963 135.941 51.5104C136.347 52.6316 136.778 53.7102 137.137 54.7841C137.497 55.858 137.776 56.9129 138.084 57.93L138.765 60.9246C138.978 61.8708 139.082 62.8169 139.238 63.7111C139.299 64.1841 139.389 64.591 139.427 65.0168C139.465 65.4425 139.503 65.8589 139.541 66.2657C139.602 67.0747 139.692 67.8363 139.72 68.5507C139.72 69.9699 139.791 71.2141 139.744 72.217C139.697 73.22 139.631 73.9911 139.593 74.5304C139.589 74.8005 139.56 75.0697 139.508 75.3346C139.488 75.0653 139.488 74.795 139.508 74.5257C139.508 73.9816 139.541 73.2058 139.564 72.2123C139.588 71.2188 139.493 69.9841 139.456 68.5649C139.413 67.8552 139.314 67.0983 139.238 66.2941C139.195 65.8967 139.153 65.4804 139.11 65.0593C139.068 64.6383 138.973 64.2078 138.902 63.7631C138.741 62.8832 138.623 61.9512 138.405 61.0003C138.188 60.0494 137.932 59.0607 137.7 58.0389C137.469 57.017 137.071 55.9904 136.754 54.9165C136.437 53.8426 135.959 52.7877 135.548 51.6807C133.612 46.9193 131.006 42.4589 127.808 38.4345C124.628 34.4022 120.865 30.8658 116.644 27.9416C113.234 25.4977 109.417 23.6811 105.37 22.5768C103.82 22.1792 102.236 21.9305 100.639 21.8341L99.5418 21.8246L98.5957 21.853C97.9854 21.853 97.4366 21.9524 96.9399 21.9902C96.178 22.0893 95.4228 22.2346 94.6786 22.4255C94.4175 22.4946 94.1519 22.5451 93.8838 22.5768Z" fill="#263238"/>
  <path d="M94.0396 182.856C94.0396 182.856 97.6776 168.711 99.13 162.897C99.4746 161.514 99.5421 160.077 99.3287 158.668L98.9455 156.127C100.431 155.867 101.055 155.578 102.418 154.419C102.908 154.483 103.405 154.388 103.838 154.15C104.271 153.912 104.617 153.542 104.826 153.095C105.412 151.95 106.146 150.01 106.855 148.203C108.152 144.891 108.606 140.293 108.606 140.293C108.606 140.293 110.834 136.135 110.701 134.37C110.569 132.606 109.32 129.715 109.32 129.715C109.32 129.715 109.637 126.877 109.107 125.718C108.298 123.925 106.226 122.983 104.074 123.584C102.238 124.095 93.2354 125.912 93.2354 125.912L91.556 124.161L91.1207 117.888L96.2063 116.128C96.2063 116.128 99.5179 117.585 101.935 116.668C102.789 116.371 103.534 115.828 104.078 115.106C104.175 114.969 104.24 114.812 104.27 114.647C104.3 114.481 104.294 114.312 104.253 114.149C104.211 113.986 104.134 113.834 104.028 113.704C103.922 113.574 103.789 113.468 103.638 113.394C101.524 112.344 96.6558 109.992 95.0851 109.841C93.0604 109.642 85.2356 113.408 84.6064 114.572C84.474 114.808 83.5136 128.627 83.5136 128.627C82.2263 130.098 81.4861 131.967 81.4179 133.921C81.4179 136.996 80.6373 159.94 80.6373 159.94L69.1226 182.847" fill="#D29886"/>
  <path d="M69.1226 182.847C69.1226 182.847 69.1793 182.709 69.3118 182.444L69.889 181.267C70.4093 180.226 71.1663 178.698 72.1455 176.725L80.5616 159.893V159.926C80.6893 155.517 80.8313 150.606 80.9874 145.26C81.0631 142.592 81.1435 139.823 81.2287 136.953C81.2287 136.239 81.2712 135.534 81.2949 134.786C81.2885 134.046 81.3407 133.305 81.451 132.572C81.7484 131.069 82.4334 129.67 83.4379 128.513L83.4095 128.584C83.6303 125.49 83.8606 122.302 84.1002 119.019C84.1617 118.2 84.228 117.377 84.2942 116.549C84.3321 116.133 84.3652 115.717 84.403 115.3C84.4267 115.087 84.4409 114.893 84.474 114.662C84.4826 114.599 84.4969 114.537 84.5166 114.477L84.6254 114.34C84.6919 114.248 84.7716 114.167 84.8619 114.099C85.5356 113.572 86.2561 113.108 87.0144 112.713C87.7619 112.296 88.533 111.923 89.3136 111.554C90.8856 110.802 92.5334 110.22 94.2289 109.817C94.6736 109.711 95.1372 109.711 95.5819 109.817C96.0151 109.926 96.4416 110.061 96.8592 110.219C97.6965 110.527 98.5197 110.872 99.3381 111.232C100.157 111.591 100.97 111.975 101.784 112.363L103.004 112.954L103.61 113.252C103.84 113.353 104.036 113.517 104.178 113.725C104.325 113.931 104.407 114.176 104.413 114.43C104.418 114.683 104.348 114.932 104.211 115.144C103.941 115.531 103.606 115.869 103.222 116.142C102.839 116.414 102.422 116.635 101.983 116.8C101.539 116.959 101.076 117.057 100.606 117.093C99.8415 117.14 99.0742 117.081 98.3257 116.918C97.5829 116.768 96.8559 116.547 96.1543 116.261H96.2442L91.1633 118.021L91.2627 117.86C91.4109 119.973 91.5544 122.064 91.6932 124.133L91.66 124.057L93.3395 125.807L93.2307 125.774C96.8355 125.032 100.379 124.355 103.795 123.518C104.65 123.245 105.561 123.199 106.439 123.385C107.309 123.592 108.089 124.071 108.667 124.752C108.953 125.092 109.176 125.48 109.325 125.897C109.441 126.314 109.509 126.743 109.528 127.175C109.567 128.019 109.542 128.865 109.453 129.706V129.649C109.829 130.538 110.156 131.448 110.432 132.374C110.571 132.832 110.683 133.298 110.768 133.769C110.86 134.238 110.86 134.72 110.768 135.189C110.565 136.1 110.273 136.988 109.897 137.843C109.538 138.689 109.145 139.503 108.729 140.303V140.265C108.531 142.096 108.205 143.91 107.754 145.696C107.285 147.378 106.702 149.027 106.009 150.63C105.692 151.415 105.375 152.191 105.01 152.934C104.835 153.317 104.58 153.659 104.263 153.937C103.944 154.21 103.556 154.39 103.142 154.457C102.937 154.491 102.729 154.499 102.522 154.481H102.446H102.517L102.489 154.504L102.375 154.599L102.143 154.788C101.845 155.038 101.529 155.266 101.197 155.47C100.527 155.85 99.7899 156.096 99.0259 156.193L99.0921 156.099C99.2435 157.154 99.4185 158.171 99.5652 159.188C99.6611 160.176 99.6229 161.172 99.4517 162.149C99.2672 163.096 98.9786 163.985 98.7846 164.865L98.1365 167.396C97.2944 170.66 96.5753 173.465 95.984 175.755L94.6215 181.011C94.4607 181.607 94.3424 182.061 94.262 182.374C94.1816 182.686 94.1295 182.847 94.1295 182.847C94.1295 182.847 94.1626 182.686 94.2383 182.374L94.5742 181.006L95.8941 175.736C96.4713 173.442 97.1809 170.636 98.004 167.372C98.2122 166.552 98.4267 165.707 98.6474 164.836C98.8556 163.961 99.1205 163.062 99.3003 162.13C99.4682 161.165 99.5033 160.182 99.4044 159.207C99.2814 158.209 99.1016 157.182 98.9313 156.127V156.047H99.0117C99.7557 155.948 100.474 155.708 101.126 155.337C101.457 155.135 101.773 154.911 102.073 154.665L102.295 154.481L102.408 154.386H102.437L102.512 154.362H102.598C102.787 154.381 102.978 154.373 103.165 154.339C103.551 154.267 103.911 154.099 104.215 153.851C104.518 153.603 104.754 153.283 104.902 152.92C105.261 152.186 105.573 151.415 105.886 150.63C106.575 149.035 107.153 147.394 107.617 145.719C108.053 143.94 108.37 142.134 108.563 140.312C108.979 139.522 109.367 138.704 109.722 137.866C110.094 137.028 110.381 136.155 110.578 135.26C110.666 134.81 110.666 134.347 110.578 133.897C110.493 133.436 110.383 132.979 110.247 132.53C109.974 131.612 109.649 130.71 109.273 129.829V129.8V129.687C109.363 128.859 109.387 128.025 109.344 127.194C109.329 126.779 109.264 126.367 109.15 125.968C109.01 125.581 108.803 125.22 108.54 124.904C107.991 124.261 107.252 123.811 106.43 123.617C105.589 123.438 104.715 123.486 103.899 123.754C100.469 124.573 96.9349 125.273 93.3253 126.016H93.2591L93.2117 125.968L91.5323 124.213L91.5039 124.185V124.137C91.362 122.069 91.2185 119.979 91.0734 117.869V117.775L91.1633 117.746L96.2442 115.982H96.2868H96.3341C97.7009 116.569 99.1807 116.847 100.667 116.795C101.113 116.76 101.552 116.666 101.973 116.516C102.393 116.36 102.791 116.15 103.156 115.892C103.524 115.634 103.844 115.314 104.102 114.946C104.213 114.773 104.27 114.572 104.266 114.367C104.262 114.162 104.197 113.963 104.078 113.796C103.96 113.628 103.796 113.496 103.605 113.417L103 113.115L101.67 112.575C100.861 112.187 100.048 111.809 99.234 111.449C98.4204 111.09 97.6019 110.74 96.774 110.437C95.9461 110.134 95.1088 109.817 94.2667 110.03C92.5882 110.442 90.958 111.03 89.4035 111.785C88.6276 112.154 87.8565 112.523 87.1138 112.935C86.3717 113.322 85.667 113.776 85.0086 114.293C84.9291 114.349 84.8589 114.418 84.8004 114.496L84.7105 114.605C84.7078 114.646 84.7078 114.687 84.7105 114.728C84.6869 114.912 84.6632 115.135 84.6443 115.338C84.6064 115.755 84.5686 116.166 84.5355 116.582C84.4692 117.412 84.403 118.235 84.3368 119.052C84.0955 122.326 83.8637 125.519 83.6366 128.613V128.651L83.6082 128.684C82.6282 129.805 81.9594 131.164 81.6686 132.625C81.562 133.345 81.5098 134.072 81.5125 134.801C81.5125 135.529 81.4699 136.253 81.4463 136.967C81.3611 139.841 81.276 142.611 81.1908 145.279C81.0252 150.611 80.8691 155.522 80.7177 159.945C77.1176 167.074 74.2318 172.798 72.2354 176.744C71.242 178.712 70.4661 180.23 69.941 181.267C69.6808 181.777 69.4679 182.17 69.3402 182.435C69.2124 182.7 69.1226 182.847 69.1226 182.847Z" fill="#6F4439"/>
  <path d="M98.865 156.132C99.4205 156.026 99.9618 155.856 100.478 155.626C101.071 155.334 101.609 154.942 102.068 154.467C102.675 153.831 103.226 153.144 103.714 152.413C104.854 150.824 105.734 148.629 106.6 146.207C107.122 144.965 107.441 143.647 107.546 142.304C107.57 141.603 107.429 140.906 107.134 140.269C106.804 139.624 106.316 139.072 105.715 138.666C104.499 137.888 103.106 137.43 101.666 137.332C100.275 137.18 98.9029 137.152 97.6114 136.896C96.4049 136.625 95.2347 136.212 94.1248 135.666C93.1682 135.205 92.1448 134.899 91.0923 134.758C90.6358 134.715 90.1754 134.737 89.7251 134.824C89.3247 134.918 88.9335 135.048 88.5566 135.212C87.9485 135.473 87.3736 135.805 86.8441 136.201C86.5065 136.446 86.2217 136.757 86.0067 137.114C85.9533 137.208 85.912 137.308 85.8837 137.412C85.8837 137.483 85.8506 137.521 85.8506 137.521C85.8454 137.483 85.8454 137.445 85.8506 137.407C85.8659 137.297 85.8995 137.19 85.95 137.09C86.1537 136.72 86.4343 136.397 86.7731 136.144C87.2998 135.728 87.8768 135.38 88.4904 135.108C88.8734 134.93 89.2727 134.789 89.6826 134.687C90.149 134.59 90.6273 134.563 91.1018 134.607C92.1759 134.734 93.2222 135.035 94.2005 135.496C95.2993 136.029 96.4568 136.43 97.6492 136.693C98.9171 136.934 100.28 136.958 101.689 137.114C103.171 137.21 104.604 137.682 105.852 138.486C106.485 138.914 106.995 139.5 107.333 140.184C107.646 140.854 107.795 141.589 107.768 142.327C107.669 143.696 107.35 145.039 106.822 146.306C105.947 148.742 105.039 150.933 103.865 152.536C103.364 153.268 102.799 153.953 102.177 154.585C101.698 155.062 101.139 155.452 100.526 155.734C100.138 155.904 99.7312 156.028 99.3144 156.103L98.9833 156.146C98.9434 156.146 98.9037 156.142 98.865 156.132Z" fill="#6F4439"/>
  <path d="M99.1161 157.305C98.9348 156.785 98.7847 156.254 98.6667 155.715C98.4065 154.731 98.0138 153.378 97.5076 151.931C97.0015 150.483 96.4953 149.149 96.1263 148.194C95.9026 147.688 95.7175 147.166 95.5728 146.632C95.8485 147.112 96.0873 147.612 96.2871 148.127C96.6987 149.073 97.2333 150.37 97.7442 151.85C98.1768 153.112 98.5416 154.396 98.837 155.697C98.9458 156.198 99.0262 156.605 99.0688 156.884C99.1056 157.021 99.1215 157.163 99.1161 157.305Z" fill="#6F4439"/>
  <path d="M95.1657 146.689C95.2392 146.703 95.3146 146.703 95.3881 146.689C95.485 146.642 95.5715 146.576 95.6422 146.495C95.7129 146.413 95.7665 146.319 95.7997 146.216C95.9619 145.916 96.0889 145.599 96.1781 145.27C96.3011 144.853 96.3011 144.409 96.1781 143.993L96.1119 143.784L96.3153 143.865C97.5407 144.324 98.7899 144.717 100.057 145.043L100.474 145.156L100.668 145.208L100.53 145.36C100.257 145.663 100.066 146.03 99.9742 146.427C99.8823 146.825 99.893 147.239 100.005 147.631L100.034 147.725L99.9438 147.768C99.0342 148.195 98.2969 148.919 97.8528 149.821C97.6958 150.177 97.5584 150.542 97.4412 150.914C97.4349 150.809 97.4445 150.704 97.4696 150.602C97.5221 150.313 97.6095 150.032 97.7298 149.764C98.1519 148.802 98.9034 148.022 99.8492 147.564L99.7924 147.697C99.6606 147.266 99.6427 146.809 99.7406 146.369C99.8384 145.93 100.049 145.523 100.351 145.189L100.407 145.393L99.9911 145.279C98.7148 144.955 97.4615 144.545 96.2396 144.054L96.3768 143.931C96.5037 144.386 96.4939 144.868 96.3484 145.317C96.2449 145.65 96.0986 145.968 95.9132 146.263C95.8688 146.373 95.8015 146.472 95.7158 146.553C95.6302 146.635 95.5281 146.697 95.4165 146.736C95.2367 146.76 95.161 146.718 95.1657 146.689Z" fill="#6F4439"/>
  <path d="M84.3135 132.781C84.378 132.692 84.4526 132.611 84.5358 132.539C84.767 132.327 85.0227 132.143 85.2975 131.991C86.326 131.469 87.4565 131.18 88.609 131.144C91.5137 130.997 95.5113 130.912 99.9393 130.779C101.046 130.779 102.12 130.709 103.175 130.718C104.201 130.692 105.218 130.913 106.141 131.361C106.951 131.824 107.609 132.513 108.034 133.344C108.407 134.055 108.652 134.827 108.757 135.624C108.884 136.77 108.859 137.928 108.682 139.068C108.63 139.47 108.578 139.777 108.545 139.99C108.529 140.099 108.507 140.206 108.478 140.312C108.466 140.204 108.466 140.094 108.478 139.986C108.507 139.744 108.535 139.437 108.573 139.039C108.712 137.908 108.712 136.764 108.573 135.633C108.462 134.86 108.215 134.112 107.844 133.424C107.431 132.629 106.794 131.972 106.014 131.532C105.128 131.111 104.155 130.905 103.175 130.931C102.139 130.931 101.056 130.978 99.9487 131.002C95.5302 131.13 91.5137 131.191 88.6232 131.29C87.4781 131.304 86.349 131.562 85.3117 132.047C84.9545 132.257 84.6199 132.502 84.3135 132.781Z" fill="#6F4439"/>
  <path d="M101.581 124.142C101.717 124.102 101.859 124.08 102.002 124.076C102.387 124.032 102.776 124.032 103.161 124.076C104.442 124.253 105.644 124.801 106.619 125.651C107.592 126.49 108.385 127.516 108.951 128.67C109.053 128.863 109.145 129.062 109.226 129.266C109.294 129.42 109.354 129.578 109.405 129.739C109.461 129.87 109.498 130.009 109.514 130.15C109.472 130.15 109.268 129.597 108.8 128.755C108.201 127.653 107.409 126.668 106.463 125.845C105.521 125.027 104.378 124.477 103.151 124.251C102.191 124.114 101.585 124.199 101.581 124.142Z" fill="#6F4439"/>
  <path d="M83.5137 128.584C83.5137 128.584 83.613 128.461 83.8306 128.277C84.1377 128.017 84.4687 127.788 84.8194 127.591C85.3405 127.297 85.8906 127.058 86.461 126.877C87.1616 126.668 87.8762 126.51 88.5993 126.404C90.132 126.181 91.5182 126.077 92.5116 125.93C93.5051 125.784 94.1201 125.661 94.1296 125.699C93.9993 125.768 93.8588 125.816 93.7133 125.841C93.4389 125.921 93.0415 126.006 92.54 126.105C91.5466 126.295 90.1746 126.432 88.6324 126.654C87.9217 126.756 87.2185 126.905 86.5272 127.099C85.9678 127.265 85.4247 127.482 84.9045 127.747C84.0199 128.211 83.5421 128.622 83.5137 128.584Z" fill="#6F4439"/>
</svg>