<svg xmlns="http://www.w3.org/2000/svg" width="120" height="120" viewBox="0 0 120 120" fill="none">
  <circle cx="60" cy="60" r="59.5" fill="#CCE1E1" stroke="#7DE1E1"/>
  <path d="M60 26C32.1722 26 18 60 18 60C18 60 32.1722 94 60 94C87.8306 94 102 60 102 60C102 60 87.8306 26 60 26ZM60 88.3288C36.8104 88.3288 25 60 25 60C25 60 36.8104 31.6644 60 31.6644C83.1924 31.6644 95 60 95 60C95 60 83.1924 88.3288 60 88.3288Z" fill="#003D36"/>
  <path d="M59.86 84.65C48.667 84.65 39.56 73.5915 39.56 60C39.56 46.4085 48.667 35.35 59.86 35.35C71.053 35.35 80.16 46.4085 80.16 60C80.16 73.5915 71.0544 84.65 59.86 84.65ZM59.86 40.45C50.9826 40.45 43.76 49.2203 43.76 60C43.76 70.7797 50.9826 79.55 59.86 79.55C68.7374 79.55 75.96 70.7797 75.96 60C75.96 49.2203 68.7374 40.45 59.86 40.45Z" fill="#003D36"/>
  <path d="M70.3572 59.9897C70.3572 67.0413 65.6546 72.7567 59.8628 72.7567C58.4825 72.7565 57.1158 72.426 55.8407 71.7842C54.5657 71.1424 53.4072 70.2018 52.4316 69.0162C51.456 67.8306 50.6824 66.4232 50.1548 64.8744C49.6273 63.3256 49.3563 61.6658 49.3572 59.9897C49.3572 52.95 54.0584 47.2567 59.8628 47.2567C65.6546 47.2567 70.3572 52.9517 70.3572 59.9897Z" fill="#003D36"/>
</svg>